<svg
  version="1.1"
  xmlns="http://www.w3.org/2000/svg"
  xmlns:xlink="http://www.w3.org/1999/xlink"
  viewBox="0 0 1011.174 298"
  color-interpolation-filters="sRGB"
>
<polyline
    points="236.96999999999997,39.818449239736616 42.24800000000005,67 42.24800000000005,92"
    stroke="#00007f"
    fill="none"
  /><polygon
    points="42.24800000000005,92 39.65980954897484,82.34074173710931 44.83619045102525,82.34074173710931"
    stroke="none"
    fill="#00007f"
  /><polyline
    points="274.70541463414634,42 178.99199999999996,67 178.99199999999996,92"
    stroke="#0000ff"
    fill="none"
  /><polygon
    points="178.99199999999996,92 176.40380954897475,82.34074173710931 181.58019045102517,82.34074173710931"
    stroke="none"
    fill="#0000ff"
  /><polyline
    points="354.87165853658536,42 384.418,67 384.418,92"
    stroke="#007f00"
    fill="none"
  /><polygon
    points="384.418,92 381.8298095489748,82.34074173710931 387.0061904510252,82.34074173710931"
    stroke="none"
    fill="#007f00"
  /><polyline
    points="412.57624390243905,42 532.2860000000001,67 532.2860000000001,92"
    stroke="#007f7f"
    fill="none"
  /><polygon
    points="532.2860000000001,92 529.6978095489749,82.34074173710931 534.8741904510252,82.34074173710931"
    stroke="none"
    fill="#007f7f"
  /><polyline
    points="434.954,37.920301688185056 676.4459999999999,67 676.4459999999999,92"
    stroke="#007fff"
    fill="none"
  /><polygon
    points="676.4459999999999,92 673.8578095489747,82.34074173710931 679.0341904510251,82.34074173710931"
    stroke="none"
    fill="#007fff"
  /><polyline
    points="434.954,33.41066316096991 883.6419999999999,67 883.6419999999999,92"
    stroke="#00ff00"
    fill="none"
  /><polygon
    points="883.6419999999999,92 881.0538095489748,82.34074173710931 886.2301904510251,82.34074173710931"
    stroke="none"
    fill="#00ff00"
  /><polyline
    points="766.1099999999999,123.52872555717397 573.3259999999999,149 573.3259999999999,190 573.3259999999999,231 272.67400000000004,268.44541787163723"
    stroke="#00ff7f"
    fill="none"
  /><polygon
    points="272.67400000000004,268.44541787163723 281.93932042096594,264.6832592496713 282.57908216974215,269.8199531424311"
    stroke="none"
    fill="#00ff7f"
  /><polyline
    points="835.8800487804878,124 761.252,149 761.252,174"
    stroke="#00ffff"
    fill="none"
  /><polygon
    points="761.252,174 758.6638095489748,164.3407417371093 763.8401904510251,164.3407417371093"
    stroke="none"
    fill="#00ffff"
  /><polyline
    points="911.2338048780487,124 954.3459999999999,149 954.3459999999999,190 954.3459999999999,231 600.884,268.936822320302"
    stroke="#7f0000"
    fill="none"
  /><polygon
    points="600.884,268.936822320302 610.2118967838065,265.33261067409535 610.764301401759,270.4794318659746"
    stroke="none"
    fill="#7f0000"
  /><polyline
    points="222.61517073170737,206 188.99200000000008,231 222.61517073170737,256"
    stroke="#00ff7f"
    fill="none"
  /><polygon
    points="222.61517073170737,256 213.3194690685593,252.31354769598923 216.40808309742528,248.15958782331296"
    stroke="none"
    fill="#00ff7f"
  /><polyline
    points="265.65282926829275,206 299.27600000000007,231 543.8040000000001,267.71484025956903"
    stroke="#7f0000"
    fill="none"
  /><polygon
    points="543.8040000000001,267.71484025956903 533.8675145188059,268.84012079437656 534.6361108815469,263.7211190484994"
    stroke="none"
    fill="#7f0000"
  /><polyline
    points="153.57073170731707,124 113.85000000000002,149 113.85000000000002,190 113.85000000000002,231 215.59400000000002,263.01854410365047"
    stroke="#00ff7f"
    fill="none"
  /><polygon
    points="215.59400000000002,263.01854410365047 205.60328052783163,262.58781863605503 207.15714586881606,257.6501651705717"
    stroke="none"
    fill="#00ff7f"
  /><polyline
    points="204.41326829268291,124 244.13400000000001,149 244.13400000000001,174"
    stroke="#7f007f"
    fill="none"
  /><polygon
    points="244.13400000000001,174 241.5458095489748,164.3407417371093 246.72219045102523,164.3407417371093"
    stroke="none"
    fill="#7f007f"
  /><polyline
    points="380.5155609756098,124 374.418,149 374.418,190 374.418,231 272.67400000000004,263.01854410365047"
    stroke="#00ff7f"
    fill="none"
  /><polygon
    points="272.67400000000004,263.01854410365047 281.110854131184,257.6501651705717 282.66471947216843,262.58781863605503"
    stroke="none"
    fill="#00ff7f"
  /><polyline
    points="427.79,118.52793236554811 553.3259999999999,149 339.418,177.3649900385521"
    stroke="#7f007f"
    fill="none"
  /><polygon
    points="339.418,177.3649900385521 348.6532136913899,173.52952030534277 349.3336645327262,178.66098265984144"
    stroke="none"
    fill="#7f007f"
  /><polyline
    points="748.7657560975609,206 729.256,231 858.81,265.4054124078608"
    stroke="#7f00ff"
    fill="none"
  /><polygon
    points="858.81,265.4054124078608 848.8100247061676,265.4276412796896 850.13865292241,260.4246755286458"
    stroke="none"
    fill="#7f00ff"
  /><polyline
    points="784.9413658536585,206 821.9559999999999,231 600.884,267.3121644792718"
    stroke="#7f0000"
    fill="none"
  /><polygon
    points="600.884,267.3121644792718 609.9960334505257,263.19259576440606 610.8350368057218,268.3005300448253"
    stroke="none"
    fill="#7f0000"
  /><g >
      <rect
    x="236.96999999999997"
    y="10"
    width="197.984"
    height="32"
    stroke="#000000"
    fill="none"
  /><text text-anchor="middle"
    x="335.962"
    y="26"
    fill="black"
    dominant-baseline="middle"
    style="font-size:12px;font-family:sans-serif"
  >package-dependency-graph
  </text>
    </g><g >
      <rect
    x="10.000000000000043"
    y="92"
    width="64.49600000000001"
    height="32"
    stroke="#00007f"
    fill="none"
  /><text text-anchor="middle"
    x="42.24800000000005"
    y="108"
    fill="black"
    dominant-baseline="middle"
    style="font-size:12px;font-family:sans-serif"
  >canvas
  </text>
    </g><g >
      <rect
    x="124.49599999999995"
    y="92"
    width="108.992"
    height="32"
    stroke="#0000ff"
    fill="none"
  /><text text-anchor="middle"
    x="178.99199999999996"
    y="108"
    fill="black"
    dominant-baseline="middle"
    style="font-size:12px;font-family:sans-serif"
  >dagre-canvas
  </text>
    </g><g >
      <rect
    x="341.046"
    y="92"
    width="86.744"
    height="32"
    stroke="#007f00"
    fill="none"
  /><text text-anchor="middle"
    x="384.418"
    y="108"
    fill="black"
    dominant-baseline="middle"
    style="font-size:12px;font-family:sans-serif"
  >dagre-svg
  </text>
    </g><g >
      <rect
    x="477.7900000000001"
    y="92"
    width="108.992"
    height="32"
    stroke="#007f7f"
    fill="none"
  /><text text-anchor="middle"
    x="532.2860000000001"
    y="108"
    fill="black"
    dominant-baseline="middle"
    style="font-size:12px;font-family:sans-serif"
  >graphviz-cli
  </text>
    </g><g >
      <rect
    x="636.7819999999999"
    y="92"
    width="79.328"
    height="32"
    stroke="#007fff"
    fill="none"
  /><text text-anchor="middle"
    x="676.4459999999999"
    y="108"
    fill="black"
    dominant-baseline="middle"
    style="font-size:12px;font-family:sans-serif"
  >minimist
  </text>
    </g><g >
      <rect
    x="766.1099999999999"
    y="92"
    width="235.064"
    height="32"
    stroke="#00ff00"
    fill="none"
  /><text text-anchor="middle"
    x="883.6419999999999"
    y="108"
    fill="black"
    dominant-baseline="middle"
    style="font-size:12px;font-family:sans-serif"
  >package-dependency-graph-core
  </text>
    </g><g >
      <rect
    x="215.59400000000002"
    y="256"
    width="57.08"
    height="32"
    stroke="#00ff7f"
    fill="none"
  /><text text-anchor="middle"
    x="244.13400000000001"
    y="272"
    fill="black"
    dominant-baseline="middle"
    style="font-size:12px;font-family:sans-serif"
  >dagre
  </text>
    </g><g >
      <rect
    x="654.8439999999999"
    y="174"
    width="212.816"
    height="32"
    stroke="#00ffff"
    fill="none"
  /><text text-anchor="middle"
    x="761.252"
    y="190"
    fill="black"
    dominant-baseline="middle"
    style="font-size:12px;font-family:sans-serif"
  >package-dependency-collect
  </text>
    </g><g >
      <rect
    x="543.8040000000001"
    y="256"
    width="57.08"
    height="32"
    stroke="#7f0000"
    fill="none"
  /><text text-anchor="middle"
    x="572.344"
    y="272"
    fill="black"
    dominant-baseline="middle"
    style="font-size:12px;font-family:sans-serif"
  >tslib
  </text>
    </g><g >
      <rect
    x="148.85000000000002"
    y="174"
    width="190.568"
    height="32"
    stroke="#7f007f"
    fill="none"
  /><text text-anchor="middle"
    x="244.13400000000001"
    y="190"
    fill="black"
    dominant-baseline="middle"
    style="font-size:12px;font-family:sans-serif"
  >dagre-abstract-renderer
  </text>
    </g><g >
      <rect
    x="858.81"
    y="256"
    width="49.664"
    height="32"
    stroke="#7f00ff"
    fill="none"
  /><text text-anchor="middle"
    x="883.6419999999999"
    y="272"
    fill="black"
    dominant-baseline="middle"
    style="font-size:12px;font-family:sans-serif"
  >glob
  </text>
    </g>
</svg>