<svg
  version="1.1"
  xmlns="http://www.w3.org/2000/svg"
  xmlns:xlink="http://www.w3.org/1999/xlink"
  viewBox="0 0 828.726 298"
  color-interpolation-filters="sRGB"
>
<g >
      <rect
    x="296.24"
    y="10"
    width="197.984"
    height="32"
    stroke="#000000"
    fill="none"
  /><text text-anchor="middle"
    x="395.232"
    y="26"
    fill="black"
    dominant-baseline="middle"
    style="font-size:12px;font-family:sans-serif"
  >package-dependency-graph
  </text>
    </g><g >
      <rect
    x="10.000000000000043"
    y="92"
    width="64.49600000000001"
    height="32"
    stroke="#00007f"
    fill="none"
  /><text text-anchor="middle"
    x="42.24800000000005"
    y="108"
    fill="black"
    dominant-baseline="middle"
    style="font-size:12px;font-family:sans-serif"
  >canvas
  </text>
    </g><g >
      <rect
    x="261.24"
    y="92"
    width="108.992"
    height="32"
    stroke="#0000ff"
    fill="none"
  /><text text-anchor="middle"
    x="315.736"
    y="108"
    fill="black"
    dominant-baseline="middle"
    style="font-size:12px;font-family:sans-serif"
  >dagre-canvas
  </text>
    </g><g >
      <rect
    x="124.49600000000005"
    y="92"
    width="86.744"
    height="32"
    stroke="#007f00"
    fill="none"
  /><text text-anchor="middle"
    x="167.86800000000005"
    y="108"
    fill="black"
    dominant-baseline="middle"
    style="font-size:12px;font-family:sans-serif"
  >dagre-svg
  </text>
    </g><g >
      <rect
    x="427.874"
    y="92"
    width="108.992"
    height="32"
    stroke="#007f7f"
    fill="none"
  /><text text-anchor="middle"
    x="482.37"
    y="108"
    fill="black"
    dominant-baseline="middle"
    style="font-size:12px;font-family:sans-serif"
  >graphviz-cli
  </text>
    </g><g >
      <rect
    x="586.866"
    y="92"
    width="79.328"
    height="32"
    stroke="#007fff"
    fill="none"
  /><text text-anchor="middle"
    x="626.53"
    y="108"
    fill="black"
    dominant-baseline="middle"
    style="font-size:12px;font-family:sans-serif"
  >minimist
  </text>
    </g><g >
      <rect
    x="583.6619999999999"
    y="174"
    width="235.064"
    height="32"
    stroke="#00ff00"
    fill="none"
  /><text text-anchor="middle"
    x="701.194"
    y="190"
    fill="black"
    dominant-baseline="middle"
    style="font-size:12px;font-family:sans-serif"
  >package-dependency-graph-core
  </text>
    </g><g >
      <rect
    x="149.32800000000006"
    y="256"
    width="57.08"
    height="32"
    stroke="#00ff7f"
    fill="none"
  /><text text-anchor="middle"
    x="177.86800000000005"
    y="272"
    fill="black"
    dominant-baseline="middle"
    style="font-size:12px;font-family:sans-serif"
  >dagre
  </text>
    </g><g >
      <rect
    x="682.654"
    y="256"
    width="57.08"
    height="32"
    stroke="#00ffff"
    fill="none"
  /><text text-anchor="middle"
    x="711.194"
    y="272"
    fill="black"
    dominant-baseline="middle"
    style="font-size:12px;font-family:sans-serif"
  >tslib
  </text>
    </g><g >
      <rect
    x="285.59400000000005"
    y="174"
    width="190.568"
    height="32"
    stroke="#7f0000"
    fill="none"
  /><text text-anchor="middle"
    x="380.87800000000004"
    y="190"
    fill="black"
    dominant-baseline="middle"
    style="font-size:12px;font-family:sans-serif"
  >dagre-abstract-renderer
  </text>
    </g><polyline
    points="296.24,37.498175554699365 42.24800000000005,67 42.24800000000005,92"
    stroke="#00007f"
    fill="none"
  /><polygon
    points="42.24800000000005,92 39.65980954897484,82.34074173710931 44.83619045102525,82.34074173710931"
    stroke="none"
    fill="#00007f"
  /><polyline
    points="364.20917073170733,42 315.736,67 315.736,92"
    stroke="#0000ff"
    fill="none"
  /><polygon
    points="315.736,92 313.1478095489748,82.34074173710931 318.3241904510252,82.34074173710931"
    stroke="none"
    fill="#0000ff"
  /><polyline
    points="306.5045853658537,42 167.86800000000005,67 167.86800000000005,92"
    stroke="#007f00"
    fill="none"
  /><polygon
    points="167.86800000000005,92 165.27980954897484,82.34074173710931 170.45619045102526,82.34074173710931"
    stroke="none"
    fill="#007f00"
  /><polyline
    points="429.2370731707317,42 482.37,67 482.37,92"
    stroke="#007f7f"
    fill="none"
  /><polygon
    points="482.37,92 479.7818095489748,82.34074173710931 484.9581904510252,82.34074173710931"
    stroke="none"
    fill="#007f7f"
  /><polyline
    points="485.49463414634147,42 626.53,67 626.53,92"
    stroke="#007fff"
    fill="none"
  /><polygon
    points="626.53,92 623.9418095489748,82.34074173710931 629.1181904510252,82.34074173710931"
    stroke="none"
    fill="#007fff"
  /><polyline
    points="494.22400000000005,39.26528130944366 701.194,67 701.194,108 701.194,149 701.194,174"
    stroke="#00ff00"
    fill="none"
  /><polygon
    points="701.194,174 698.6058095489748,164.3407417371093 703.7821904510251,164.3407417371093"
    stroke="none"
    fill="#00ff00"
  /><polyline
    points="602.5239512195121,206 448.35200000000003,231 206.40800000000004,267.67390307744637"
    stroke="#00ff7f"
    fill="none"
  /><polygon
    points="206.40800000000004,267.67390307744637 215.57027907184312,263.66732820485674 216.34605386907344,268.78524699154093"
    stroke="none"
    fill="#00ff7f"
  /><polyline
    points="708.9988780487804,206 721.194,231 715.0964390243902,256"
    stroke="#00ffff"
    fill="none"
  /><polygon
    points="715.0964390243902,256 714.8707803020279,246.00254641716091 719.8997396296585,247.22912186292447"
    stroke="none"
    fill="#00ffff"
  /><polyline
    points="352.0257073170732,206 306.9440000000001,231 206.40800000000004,262.9344882084973"
    stroke="#00ff7f"
    fill="none"
  /><polygon
    points="206.40800000000004,262.9344882084973 214.83044986062802,257.5435385384292 216.39753037643865,262.477013774009"
    stroke="none"
    fill="#00ff7f"
  /><polyline
    points="436.0616097560976,206 522.2860000000001,231 682.654,265.80576788701376"
    stroke="#00ffff"
    fill="none"
  /><polygon
    points="682.654,265.80576788701376 672.665554847559,266.2863544418383 673.7634594762663,261.22774547598857"
    stroke="none"
    fill="#00ffff"
  /><polyline
    points="282.9812682926829,124 231.80200000000002,149 231.80200000000002,190 231.80200000000002,231 198.91541463414637,256"
    stroke="#00ff7f"
    fill="none"
  /><polygon
    points="198.91541463414637,256 205.03873623852414,248.09399389518575 208.17136975148674,252.21485867294487"
    stroke="none"
    fill="#00ff7f"
  /><polyline
    points="370.23199999999997,119.97714285714285 502.286,149 428.2567317073171,174"
    stroke="#7f0000"
    fill="none"
  /><polygon
    points="428.2567317073171,174 436.5801400833694,168.45735866166112 438.23633547622,173.36163598495887"
    stroke="none"
    fill="#7f0000"
  /><polyline
    points="160.06312195121956,124 147.86800000000005,149 147.86800000000005,190 147.86800000000005,231 166.1606829268293,256"
    stroke="#00ff7f"
    fill="none"
  /><polygon
    points="166.1606829268293,256 158.36804620169713,249.73303798718064 162.54554256681095,246.67633332978028"
    stroke="none"
    fill="#00ff7f"
  /><polyline
    points="211.24000000000007,120.78618884638615 306.9440000000001,149 352.0257073170732,174"
    stroke="#7f0000"
    fill="none"
  /><polygon
    points="352.0257073170732,174 342.3231935772132,171.57900286496928 344.8335825053022,167.05209810864403"
    stroke="none"
    fill="#7f0000"
  />
</svg>