<svg
  version="1.1"
  xmlns="http://www.w3.org/2000/svg"
  xmlns:xlink="http://www.w3.org/1999/xlink"
  viewBox="0 0 1011.174 298"
  color-interpolation-filters="sRGB"
>
<path
    d="M 236.96999999999997 39.818449239736616 Q 42.24800000000005 67 42.24800000000005 92"
    stroke="#00007f"
    fill="none"
  /><polygon
    points="42.24800000000005,92 40.23907995794209,82.2038660551921 47.7543917571847,83.65256627361386"
    stroke="none"
    fill="#00007f"
  /><path
    d="M 274.70541463414634 42 Q 178.99199999999996 67 178.99199999999996 92"
    stroke="#0000ff"
    fill="none"
  /><polygon
    points="178.99199999999996,92 176.8365269115941,82.23506601327188 184.3727014023775,83.57099932266865"
    stroke="none"
    fill="#0000ff"
  /><path
    d="M 354.87165853658536 42 Q 384.418 67 384.418 92"
    stroke="#007f00"
    fill="none"
  /><polygon
    points="384.418,92 379.6756205268059,83.19603288669094 387.2899761627088,82.42128646838039"
    stroke="none"
    fill="#007f00"
  /><path
    d="M 412.57624390243905 42 Q 532.2860000000001 67 532.2860000000001 92"
    stroke="#007f7f"
    fill="none"
  /><polygon
    points="532.2860000000001,92 526.8460169579525,83.60913684402875 534.3725873390241,82.22011486383278"
    stroke="none"
    fill="#007f7f"
  /><path
    d="M 434.954 37.920301688185056 Q 676.4459999999999 67 676.4459999999999 92"
    stroke="#007fff"
    fill="none"
  /><polygon
    points="676.4459999999999,92 670.92546924871,83.66191027728397 678.4383150550883,82.20047548493969"
    stroke="none"
    fill="#007fff"
  /><path
    d="M 434.954 33.41066316096991 Q 883.6419999999999 67 883.6419999999999 92"
    stroke="#00ff00"
    fill="none"
  /><polygon
    points="883.6419999999999,92 878.09707076378,83.67811561211562 885.6056038187928,82.19468205294586"
    stroke="none"
    fill="#00ff00"
  /><path
    d="M 766.1099999999999 123.52872555717397 Q 573.3259999999999 149 573.3259999999999 190"
    stroke="#00ff7f"
    fill="none"
  /><path
    d="M 573.3259999999999 190 Q 573.3259999999999 231 272.67400000000004 268.44541787163723"
    stroke="#00ff7f"
    fill="none"
  /><polygon
    points="272.67400000000004,268.44541787163723 281.35812802119267,263.48699871715496 282.3207376205771,271.07989187601504"
    stroke="none"
    fill="#00ff7f"
  /><path
    d="M 835.8800487804878 124 Q 761.252 149 761.252 174"
    stroke="#00ffff"
    fill="none"
  /><polygon
    points="761.252,174 758.9912305183769,164.25890553628793 766.5413885203143,165.51340061737523"
    stroke="none"
    fill="#00ffff"
  /><path
    d="M 911.2338048780487 124 Q 954.3459999999999 149 954.3459999999999 190"
    stroke="#7f0000"
    fill="none"
  /><path
    d="M 954.3459999999999 190 Q 954.3459999999999 231 600.884 268.936822320302"
    stroke="#7f0000"
    fill="none"
  /><polygon
    points="600.884,268.936822320302 609.6539503679683,264.1318279869679 610.4829354525233,271.74046961949836"
    stroke="none"
    fill="#7f0000"
  /><path
    d="M 222.61517073170737 206 Q 188.99200000000008 231 222.61517073170737 256"
    stroke="#00ff7f"
    fill="none"
  /><polygon
    points="222.61517073170737,256 213.24265246148607,252.51346858979187 218.45314950901715,246.90727877135365"
    stroke="none"
    fill="#00ff7f"
  /><path
    d="M 265.65282926829275 206 Q 299.27600000000007 231 543.8040000000001 267.71484025956903"
    stroke="#7f0000"
    fill="none"
  /><polygon
    points="543.8040000000001,267.71484025956903 534.0959813274733,270.1136677760594 535.2431669609635,262.5464616281469"
    stroke="none"
    fill="#7f0000"
  /><path
    d="M 153.57073170731707 124 Q 113.85000000000002 149 113.85000000000002 190"
    stroke="#00ff7f"
    fill="none"
  /><path
    d="M 113.85000000000002 190 Q 113.85000000000002 231 215.59400000000002 263.01854410365047"
    stroke="#00ff7f"
    fill="none"
  /><polygon
    points="215.59400000000002,263.01854410365047 205.6203712629508,263.74430564541643 208.02838857928842,256.4793144983531"
    stroke="none"
    fill="#00ff7f"
  /><path
    d="M 204.41326829268291 124 Q 244.13400000000001 149 244.13400000000001 174"
    stroke="#7f007f"
    fill="none"
  /><polygon
    points="244.13400000000001,174 239.19587973863483,165.30431323676532 246.79100075423133,164.35944259951665"
    stroke="none"
    fill="#7f007f"
  /><path
    d="M 380.5155609756098 124 Q 374.418 149 374.418 190"
    stroke="#00ff7f"
    fill="none"
  /><path
    d="M 374.418 190 Q 374.418 231 272.67400000000004 263.01854410365047"
    stroke="#00ff7f"
    fill="none"
  /><polygon
    points="272.67400000000004,263.01854410365047 280.23961142071164,256.4793144983531 282.6476287370492,263.74430564541643"
    stroke="none"
    fill="#00ff7f"
  /><path
    d="M 427.79 118.52793236554811 Q 553.3259999999999 149 339.418 177.3649900385521"
    stroke="#7f007f"
    fill="none"
  /><polygon
    points="339.418,177.3649900385521 348.0179558449873,172.26197529584664 349.10746342495736,179.8377008053855"
    stroke="none"
    fill="#7f007f"
  /><path
    d="M 748.7657560975609 206 Q 729.256 231 858.81 265.4054124078608"
    stroke="#7f00ff"
    fill="none"
  /><polygon
    points="858.81,265.4054124078608 848.8868119066614,266.6424807423613 850.9185070000942,259.26339822418794"
    stroke="none"
    fill="#7f00ff"
  /><path
    d="M 784.9413658536585 206 Q 821.9559999999999 231 600.884 267.3121644792718"
    stroke="#7f0000"
    fill="none"
  /><polygon
    points="600.884,267.3121644792718 609.3611388919998,262.0076271567766 610.6291167073867,269.5555325630716"
    stroke="none"
    fill="#7f0000"
  /><g >
      <rect
    x="236.96999999999997"
    y="10"
    width="197.984"
    height="32"
    stroke="#000000"
    fill="none"
  /><text text-anchor="middle"
    x="335.962"
    y="26"
    fill="black"
    dominant-baseline="middle"
    style="font-size:12px;font-family:sans-serif"
  >package-dependency-graph
  </text>
    </g><g >
      <rect
    x="10.000000000000043"
    y="92"
    width="64.49600000000001"
    height="32"
    stroke="#00007f"
    fill="none"
  /><text text-anchor="middle"
    x="42.24800000000005"
    y="108"
    fill="black"
    dominant-baseline="middle"
    style="font-size:12px;font-family:sans-serif"
  >canvas
  </text>
    </g><g >
      <rect
    x="124.49599999999995"
    y="92"
    width="108.992"
    height="32"
    stroke="#0000ff"
    fill="none"
  /><text text-anchor="middle"
    x="178.99199999999996"
    y="108"
    fill="black"
    dominant-baseline="middle"
    style="font-size:12px;font-family:sans-serif"
  >dagre-canvas
  </text>
    </g><g >
      <rect
    x="341.046"
    y="92"
    width="86.744"
    height="32"
    stroke="#007f00"
    fill="none"
  /><text text-anchor="middle"
    x="384.418"
    y="108"
    fill="black"
    dominant-baseline="middle"
    style="font-size:12px;font-family:sans-serif"
  >dagre-svg
  </text>
    </g><g >
      <rect
    x="477.7900000000001"
    y="92"
    width="108.992"
    height="32"
    stroke="#007f7f"
    fill="none"
  /><text text-anchor="middle"
    x="532.2860000000001"
    y="108"
    fill="black"
    dominant-baseline="middle"
    style="font-size:12px;font-family:sans-serif"
  >graphviz-cli
  </text>
    </g><g >
      <rect
    x="636.7819999999999"
    y="92"
    width="79.328"
    height="32"
    stroke="#007fff"
    fill="none"
  /><text text-anchor="middle"
    x="676.4459999999999"
    y="108"
    fill="black"
    dominant-baseline="middle"
    style="font-size:12px;font-family:sans-serif"
  >minimist
  </text>
    </g><g >
      <rect
    x="766.1099999999999"
    y="92"
    width="235.064"
    height="32"
    stroke="#00ff00"
    fill="none"
  /><text text-anchor="middle"
    x="883.6419999999999"
    y="108"
    fill="black"
    dominant-baseline="middle"
    style="font-size:12px;font-family:sans-serif"
  >package-dependency-graph-core
  </text>
    </g><g >
      <rect
    x="215.59400000000002"
    y="256"
    width="57.08"
    height="32"
    stroke="#00ff7f"
    fill="none"
  /><text text-anchor="middle"
    x="244.13400000000001"
    y="272"
    fill="black"
    dominant-baseline="middle"
    style="font-size:12px;font-family:sans-serif"
  >dagre
  </text>
    </g><g >
      <rect
    x="654.8439999999999"
    y="174"
    width="212.816"
    height="32"
    stroke="#00ffff"
    fill="none"
  /><text text-anchor="middle"
    x="761.252"
    y="190"
    fill="black"
    dominant-baseline="middle"
    style="font-size:12px;font-family:sans-serif"
  >package-dependency-collect
  </text>
    </g><g >
      <rect
    x="543.8040000000001"
    y="256"
    width="57.08"
    height="32"
    stroke="#7f0000"
    fill="none"
  /><text text-anchor="middle"
    x="572.344"
    y="272"
    fill="black"
    dominant-baseline="middle"
    style="font-size:12px;font-family:sans-serif"
  >tslib
  </text>
    </g><g >
      <rect
    x="148.85000000000002"
    y="174"
    width="190.568"
    height="32"
    stroke="#7f007f"
    fill="none"
  /><text text-anchor="middle"
    x="244.13400000000001"
    y="190"
    fill="black"
    dominant-baseline="middle"
    style="font-size:12px;font-family:sans-serif"
  >dagre-abstract-renderer
  </text>
    </g><g >
      <rect
    x="858.81"
    y="256"
    width="49.664"
    height="32"
    stroke="#7f00ff"
    fill="none"
  /><text text-anchor="middle"
    x="883.6419999999999"
    y="272"
    fill="black"
    dominant-baseline="middle"
    style="font-size:12px;font-family:sans-serif"
  >glob
  </text>
    </g>
</svg>