<svg
  version="1.1"
  xmlns="http://www.w3.org/2000/svg"
  xmlns:xlink="http://www.w3.org/1999/xlink"
  viewBox="0 0 967.014 519"
  color-interpolation-filters="sRGB"
>
<path
    d="M 391.382 35.05698843628801 Q 42.24800000000005 67 42.24800000000005 82.76120467488713"
    stroke="#0000ff"
    fill="none"
  /><polygon
    points="42.24800000000005,92 38.42116567634915,82.76120467488713 46.07483432365095,82.76120467488713"
    stroke="none"
    fill="#0000ff"
  /><polyline
    points="475.90630769230773,42 422.42350614932985,101.14729222107299"
    stroke="#007f00"
    fill="none"
  /><polygon
    points="416.227076923077,108 419.5850216483187,98.58064719727403 425.26199065034103,103.71393724487194"
    stroke="none"
    fill="#007f00"
  /><path
    d="M 517.9658048780489 42 Q 561.078 67 561.078 82.76120467488713"
    stroke="#007fff"
    fill="none"
  /><polygon
    points="561.078,92 557.251165676349,82.76120467488713 564.9048343236509,82.76120467488713"
    stroke="none"
    fill="#007fff"
  /><path
    d="M 574.2233658536585 42 Q 705.2379999999999 67 705.2379999999999 82.76120467488713"
    stroke="#00ff00"
    fill="none"
  /><polygon
    points="705.2379999999999,92 701.411165676349,82.76120467488713 709.0648343236509,82.76120467488713"
    stroke="none"
    fill="#00ff00"
  /><path
    d="M 589.366 40.0182365781548 Q 779.9019999999999 67 779.9019999999999 108"
    stroke="#00ff7f"
    fill="none"
  /><path
    d="M 779.9019999999999 108 Q 779.9019999999999 165 779.9019999999999 196.76120467488713"
    stroke="#00ff7f"
    fill="none"
  /><polygon
    points="779.9019999999999,206 776.075165676349,196.76120467488713 783.7288343236509,196.76120467488713"
    stroke="none"
    fill="#00ff7f"
  /><path
    d="M 711.9371219512194 238 Q 605.742 263 605.742 288"
    stroke="#00ffff"
    fill="none"
  /><polyline
    points="605.742,288 605.742,329 605.742,386 575.742,427"
    stroke="#00ffff"
    fill="none"
  /><path
    d="M 575.742 427 Q 575.742 452 502.7725356677655 474.299851204693"
    stroke="#00ffff"
    fill="none"
  /><polygon
    points="493.9371219512195,477 501.654097416324,470.64010301412236 503.89097391920706,477.95959939526364"
    stroke="none"
    fill="#00ffff"
  /><path
    d="M 807.4938048780488 238 Q 850.606 263 850.606 288"
    stroke="#7f0000"
    fill="none"
  /><path
    d="M 850.606 288 Q 850.606 329 850.606 360.76120467488715"
    stroke="#7f0000"
    fill="none"
  /><polygon
    points="850.606,370 846.7791656763491,360.76120467488715 854.4328343236509,360.76120467488715"
    stroke="none"
    fill="#7f0000"
  /><path
    d="M 752.3101951219512 238 Q 709.198 263 709.198 288"
    stroke="#7f007f"
    fill="none"
  /><polyline
    points="709.198,288 709.198,329 709.198,386 709.198,427"
    stroke="#7f007f"
    fill="none"
  /><path
    d="M 709.198 427 Q 709.198 452 701.0533842507189 468.6964622860262"
    stroke="#7f007f"
    fill="none"
  /><polygon
    points="697.0028780487804,477 697.6139463139144,467.01868768270697 704.4928221875233,470.3742368893454"
    stroke="none"
    fill="#7f007f"
  /><polyline
    points="375.8844349593496,386 426.92396883095273,469.1268270122705"
    stroke="#00ffff"
    fill="none"
  /><polygon
    points="431.7580650406504,477 423.66279380052566,471.12917522414364 430.1851438613798,467.1244788003973"
    stroke="none"
    fill="#00ffff"
  /><polyline
    points="471.582,358.71597279880797 655.4065785241364,472.14837070513283"
    stroke="#7f007f"
    fill="none"
  /><polygon
    points="663.2689593495935,477 653.3969678705959,475.40507547557934 657.416189177677,468.8916659346864"
    stroke="none"
    fill="#7f007f"
  /><path
    d="M 361.692 181 Q 361.692 222 361.692 263"
    stroke="#7f00ff"
    fill="none"
  /><path
    d="M 361.692 263 Q 361.692 288 296.11225907637186 310.05500178709855"
    stroke="#7f00ff"
    fill="none"
  /><polygon
    points="287.3554146341464,313 294.89240087542356,306.4277980555373 297.3321172773202,313.68220551865977"
    stroke="none"
    fill="#7f00ff"
  /><path
    d="M 213.82400000000007 181 Q 213.82400000000007 222 213.82400000000007 263"
    stroke="#7f00ff"
    fill="none"
  /><path
    d="M 213.82400000000007 263 Q 213.82400000000007 288 224.7090421344443 305.1939716255283"
    stroke="#7f00ff"
    fill="none"
  /><polygon
    points="229.65082926829277,313 221.47567931346893,307.2409268787292 227.94240495541968,303.1470163723274"
    stroke="none"
    fill="#7f00ff"
  /><path
    d="M 850.606 402 C 850.606 427 850.606 452 850.606 467.76120467488715"
    stroke="#7f7f00"
    fill="none"
  /><polygon
    points="850.606,477 846.7791656763491,467.76120467488715 854.4328343236509,467.76120467488715"
    stroke="none"
    fill="#7f7f00"
  /><path
    d="M 780.7226829268293 402 C 671.53 427 671.53 452 678.6469547004627 468.51545974184825"
    stroke="#7f007f"
    fill="none"
  /><polygon
    points="682.3031707317073,477 675.1325430550357,470.02991400895564 682.1613663458897,467.00100547474085"
    stroke="none"
    fill="#7f007f"
  /><g >
      <rect
    x="391.382"
    y="10"
    width="197.984"
    height="32"
    stroke="#00007f"
    fill="none"
  /><text text-anchor="middle"
    x="490.374"
    y="26"
    fill="black"
    dominant-baseline="middle"
    style="font-size:12px;font-family:sans-serif"
  >package-dependency-graph
  </text>
    </g><g >
      <rect
    x="10.000000000000043"
    y="92"
    width="64.49600000000001"
    height="32"
    stroke="#0000ff"
    fill="none"
  /><text text-anchor="middle"
    x="42.24800000000005"
    y="108"
    fill="black"
    dominant-baseline="middle"
    style="font-size:12px;font-family:sans-serif"
  >canvas
  </text>
    </g><g >
      <rect
    x="307.196"
    y="149"
    width="108.992"
    height="32"
    stroke="#007f00"
    fill="none"
  /><text text-anchor="middle"
    x="361.692"
    y="165"
    fill="black"
    dominant-baseline="middle"
    style="font-size:12px;font-family:sans-serif"
  >dagre-canvas
  </text>
    </g><g >
      <rect
    x="170.45200000000006"
    y="149"
    width="86.744"
    height="32"
    stroke="#007f7f"
    fill="none"
  /><text text-anchor="middle"
    x="213.82400000000007"
    y="165"
    fill="black"
    dominant-baseline="middle"
    style="font-size:12px;font-family:sans-serif"
  >dagre-svg
  </text>
    </g><g >
      <rect
    x="506.582"
    y="92"
    width="108.992"
    height="32"
    stroke="#007fff"
    fill="none"
  /><text text-anchor="middle"
    x="561.078"
    y="108"
    fill="black"
    dominant-baseline="middle"
    style="font-size:12px;font-family:sans-serif"
  >graphviz-cli
  </text>
    </g><g >
      <rect
    x="665.574"
    y="92"
    width="79.328"
    height="32"
    stroke="#00ff00"
    fill="none"
  /><text text-anchor="middle"
    x="705.2379999999999"
    y="108"
    fill="black"
    dominant-baseline="middle"
    style="font-size:12px;font-family:sans-serif"
  >minimist
  </text>
    </g><g >
      <rect
    x="662.3699999999999"
    y="206"
    width="235.064"
    height="32"
    stroke="#00ff7f"
    fill="none"
  /><text text-anchor="middle"
    x="779.9019999999999"
    y="222"
    fill="black"
    dominant-baseline="middle"
    style="font-size:12px;font-family:sans-serif"
  >package-dependency-graph-core
  </text>
    </g><g >
      <rect
    x="368.546"
    y="477"
    width="146.072"
    height="32"
    stroke="#00ffff"
    fill="none"
  /><text text-anchor="middle"
    x="441.582"
    y="493"
    fill="black"
    dominant-baseline="middle"
    style="font-size:12px;font-family:sans-serif"
  >dagre-cluster-fix
  </text>
    </g><g >
      <rect
    x="744.198"
    y="370"
    width="212.816"
    height="32"
    stroke="#7f0000"
    fill="none"
  /><text text-anchor="middle"
    x="850.606"
    y="386"
    fill="black"
    dominant-baseline="middle"
    style="font-size:12px;font-family:sans-serif"
  >package-dependency-collect
  </text>
    </g><g >
      <rect
    x="660.658"
    y="477"
    width="57.08"
    height="32"
    stroke="#7f007f"
    fill="none"
  /><text text-anchor="middle"
    x="689.198"
    y="493"
    fill="black"
    dominant-baseline="middle"
    style="font-size:12px;font-family:sans-serif"
  >tslib
  </text>
    </g><g >
      <rect
    x="144.4960000000001"
    y="313"
    width="190.568"
    height="32"
    stroke="#7f00ff"
    fill="none"
  /><text text-anchor="middle"
    x="239.7800000000001"
    y="329"
    fill="black"
    dominant-baseline="middle"
    style="font-size:12px;font-family:sans-serif"
  >dagre-abstract-renderer
  </text>
    </g><g >
      <rect
    x="825.774"
    y="477"
    width="49.664"
    height="32"
    stroke="#7f7f00"
    fill="none"
  /><text text-anchor="middle"
    x="850.606"
    y="493"
    fill="black"
    dominant-baseline="middle"
    style="font-size:12px;font-family:sans-serif"
  >glob
  </text>
    </g><g >
      <rect
    x="109.4960000000001"
    y="108"
    width="362.0859999999999"
    height="278"
    stroke="#000000"
    fill="none"
  /><text text-anchor="middle"
    x="290.53900000000004"
    y="124"
    fill="black"
    dominant-baseline="middle"
    style="font-size:12px;font-family:sans-serif"
  >dagre renderer
  </text>
    </g>
</svg>