<svg
  version="1.1"
  xmlns="http://www.w3.org/2000/svg"
  xmlns:xlink="http://www.w3.org/1999/xlink"
  viewBox="0 0 770.044 298"
  color-interpolation-filters="sRGB"
>
<g >
      <rect
    x="205.536"
    y="10"
    width="197.984"
    height="32"
    stroke="#000000"
    fill="none"
  /><text text-anchor="middle"
    x="304.528"
    y="26"
    fill="black"
    dominant-baseline="middle"
    style="font-size:12px;font-family:sans-serif"
  >package-dependency-graph
  </text>
    </g><g >
      <rect
    x="10.000000000000043"
    y="92"
    width="64.49600000000001"
    height="32"
    stroke="#00007f"
    fill="none"
  /><text text-anchor="middle"
    x="42.24800000000005"
    y="108"
    fill="black"
    dominant-baseline="middle"
    style="font-size:12px;font-family:sans-serif"
  >canvas
  </text>
    </g><g >
      <rect
    x="210.8460000000001"
    y="256"
    width="57.08"
    height="32"
    stroke="#0000ff"
    fill="none"
  /><text text-anchor="middle"
    x="239.38600000000008"
    y="272"
    fill="black"
    dominant-baseline="middle"
    style="font-size:12px;font-family:sans-serif"
  >dagre
  </text>
    </g><g >
      <rect
    x="174.89000000000007"
    y="92"
    width="108.992"
    height="32"
    stroke="#007f00"
    fill="none"
  /><text text-anchor="middle"
    x="229.38600000000008"
    y="108"
    fill="black"
    dominant-baseline="middle"
    style="font-size:12px;font-family:sans-serif"
  >dagre-canvas
  </text>
    </g><g >
      <rect
    x="391.44"
    y="92"
    width="86.744"
    height="32"
    stroke="#007f7f"
    fill="none"
  /><text text-anchor="middle"
    x="434.812"
    y="108"
    fill="black"
    dominant-baseline="middle"
    style="font-size:12px;font-family:sans-serif"
  >dagre-svg
  </text>
    </g><g >
      <rect
    x="528.184"
    y="92"
    width="79.328"
    height="32"
    stroke="#007fff"
    fill="none"
  /><text text-anchor="middle"
    x="567.848"
    y="108"
    fill="black"
    dominant-baseline="middle"
    style="font-size:12px;font-family:sans-serif"
  >minimist
  </text>
    </g><g >
      <rect
    x="524.9799999999999"
    y="174"
    width="235.064"
    height="32"
    stroke="#00ff00"
    fill="none"
  /><text text-anchor="middle"
    x="642.512"
    y="190"
    fill="black"
    dominant-baseline="middle"
    style="font-size:12px;font-family:sans-serif"
  >package-dependency-graph-core
  </text>
    </g><g >
      <rect
    x="500.122"
    y="256"
    width="57.08"
    height="32"
    stroke="#00ff7f"
    fill="none"
  /><text text-anchor="middle"
    x="528.662"
    y="272"
    fill="black"
    dominant-baseline="middle"
    style="font-size:12px;font-family:sans-serif"
  >tslib
  </text>
    </g><g >
      <rect
    x="199.24400000000003"
    y="174"
    width="190.568"
    height="32"
    stroke="#00ffff"
    fill="none"
  /><text text-anchor="middle"
    x="294.528"
    y="190"
    fill="black"
    dominant-baseline="middle"
    style="font-size:12px;font-family:sans-serif"
  >dagre-abstract-renderer
  </text>
    </g><polyline
    points="205.536,41.47457678816532 42.24800000000005,67 42.24800000000005,92"
    stroke="#00007f"
    fill="none"
  /><polygon
    points="42.24800000000005,92 39.65980954897484,82.34074173710931 44.83619045102525,82.34074173710931"
    stroke="none"
    fill="#00007f"
  /><polyline
    points="228.41795121951225,42 109.4960000000001,67 109.4960000000001,108 109.4960000000001,149 109.4960000000001,190 109.4960000000001,231 210.8460000000001,262.9913003310494"
    stroke="#0000ff"
    fill="none"
  /><polygon
    points="210.8460000000001,262.9913003310494 200.85565830473922,262.55189981678893 202.41381055654747,257.6155974756335"
    stroke="none"
    fill="#0000ff"
  /><polyline
    points="275.20429268292685,42 229.38600000000008,67 229.38600000000008,92"
    stroke="#007f00"
    fill="none"
  /><polygon
    points="229.38600000000008,92 226.79780954897487,82.34074173710931 231.9741904510253,82.34074173710931"
    stroke="none"
    fill="#007f00"
  /><polyline
    points="355.37053658536587,42 434.812,67 434.812,92"
    stroke="#007f7f"
    fill="none"
  /><polygon
    points="434.812,92 432.2238095489748,82.34074173710931 437.4001904510252,82.34074173710931"
    stroke="none"
    fill="#007f7f"
  /><polyline
    points="403.52000000000004,41.41345890931187 567.848,67 567.848,92"
    stroke="#007fff"
    fill="none"
  /><polygon
    points="567.848,92 565.2598095489748,82.34074173710931 570.4361904510251,82.34074173710931"
    stroke="none"
    fill="#007fff"
  /><polyline
    points="403.52000000000004,38.00847377390646 642.512,67 642.512,108 642.512,149 642.512,174"
    stroke="#00ff00"
    fill="none"
  /><polygon
    points="642.512,174 639.9238095489748,164.3407417371093 645.1001904510251,164.3407417371093"
    stroke="none"
    fill="#00ff00"
  /><polyline
    points="601.9851707317073,206 538.662,231 267.9260000000001,268.0900974351435"
    stroke="#0000ff"
    fill="none"
  /><polygon
    points="267.9260000000001,268.0900974351435 277.14457702156193,264.2148119363019 277.84716463683696,269.34329025701015"
    stroke="none"
    fill="#0000ff"
  /><polyline
    points="646.4144390243902,206 652.512,231 557.202,262.5519580137263"
    stroke="#00ff7f"
    fill="none"
  /><polygon
    points="557.202,262.5519580137263 565.5584539190098,257.05926487652437 567.1852479480175,261.9733731812219"
    stroke="none"
    fill="#00ff7f"
  /><polyline
    points="273.00917073170734,206 239.38600000000008,231 239.38600000000008,256"
    stroke="#0000ff"
    fill="none"
  /><polygon
    points="239.38600000000008,256 236.79780954897487,246.3407417371093 241.9741904510253,246.3407417371093"
    stroke="none"
    fill="#0000ff"
  /><polyline
    points="316.0468292682927,206 349.6700000000001,231 500.122,265.46261285420576"
    stroke="#00ff7f"
    fill="none"
  /><polygon
    points="500.122,265.46261285420576 490.12870564114564,265.8287656328239 491.2844768284274,260.78306328272816"
    stroke="none"
    fill="#00ff7f"
  /><polyline
    points="203.96473170731713,124 164.24400000000003,149 164.24400000000003,190 164.24400000000003,231 210.8460000000001,256.42761704506137"
    stroke="#0000ff"
    fill="none"
  /><polygon
    points="210.8460000000001,256.42761704506137 201.12714422504897,254.0730804822322 203.6064922845899,249.52910068003646"
    stroke="none"
    fill="#0000ff"
  /><polyline
    points="254.80726829268298,124 294.528,149 294.528,174"
    stroke="#00ffff"
    fill="none"
  /><polygon
    points="294.528,174 291.93980954897484,164.3407417371093 297.1161904510252,164.3407417371093"
    stroke="none"
    fill="#00ffff"
  /><polyline
    points="430.9095609756098,124 424.812,149 424.812,190 424.812,231 267.9260000000001,265.68945023890933"
    stroke="#0000ff"
    fill="none"
  /><polygon
    points="267.9260000000001,265.68945023890933 276.7986696326926,261.07688765515 277.9162385931782,266.1311886811745"
    stroke="none"
    fill="#0000ff"
  /><polyline
    points="471.43639024390245,124 528.662,149 385.8973658536586,174"
    stroke="#00ffff"
    fill="none"
  /><polygon
    points="385.8973658536586,174 394.965412647908,169.78448967059705 395.8582799048861,174.88328436194604"
    stroke="none"
    fill="#00ffff"
  />
</svg>