<svg
  version="1.1"
  xmlns="http://www.w3.org/2000/svg"
  xmlns:xlink="http://www.w3.org/1999/xlink"
  viewBox="0 0 929.0360000000001 298"
  color-interpolation-filters="sRGB"
>
<g >
      <rect
    x="335.82"
    y="10"
    width="197.984"
    height="32"
    stroke="#000000"
    fill="none"
  /><text text-anchor="middle"
    x="434.812"
    y="26"
    fill="black"
    dominant-baseline="middle"
    style="font-size:12px;font-family:sans-serif"
  >package-dependency-graph
  </text>
    </g><g >
      <rect
    x="10.000000000000043"
    y="92"
    width="64.49600000000001"
    height="32"
    stroke="#00007f"
    fill="none"
  /><text text-anchor="middle"
    x="42.24800000000005"
    y="108"
    fill="black"
    dominant-baseline="middle"
    style="font-size:12px;font-family:sans-serif"
  >canvas
  </text>
    </g><g >
      <rect
    x="210.8460000000001"
    y="256"
    width="57.08"
    height="32"
    stroke="#0000ff"
    fill="none"
  /><text text-anchor="middle"
    x="239.38600000000008"
    y="272"
    fill="black"
    dominant-baseline="middle"
    style="font-size:12px;font-family:sans-serif"
  >dagre
  </text>
    </g><g >
      <rect
    x="174.88999999999996"
    y="92"
    width="108.992"
    height="32"
    stroke="#007f00"
    fill="none"
  /><text text-anchor="middle"
    x="229.38599999999997"
    y="108"
    fill="black"
    dominant-baseline="middle"
    style="font-size:12px;font-family:sans-serif"
  >dagre-canvas
  </text>
    </g><g >
      <rect
    x="391.44"
    y="92"
    width="86.744"
    height="32"
    stroke="#007f7f"
    fill="none"
  /><text text-anchor="middle"
    x="434.812"
    y="108"
    fill="black"
    dominant-baseline="middle"
    style="font-size:12px;font-family:sans-serif"
  >dagre-svg
  </text>
    </g><g >
      <rect
    x="528.1840000000001"
    y="92"
    width="108.992"
    height="32"
    stroke="#007fff"
    fill="none"
  /><text text-anchor="middle"
    x="582.6800000000001"
    y="108"
    fill="black"
    dominant-baseline="middle"
    style="font-size:12px;font-family:sans-serif"
  >graphviz-cli
  </text>
    </g><g >
      <rect
    x="687.176"
    y="92"
    width="79.328"
    height="32"
    stroke="#00ff00"
    fill="none"
  /><text text-anchor="middle"
    x="726.84"
    y="108"
    fill="black"
    dominant-baseline="middle"
    style="font-size:12px;font-family:sans-serif"
  >minimist
  </text>
    </g><g >
      <rect
    x="683.972"
    y="174"
    width="235.064"
    height="32"
    stroke="#00ff7f"
    fill="none"
  /><text text-anchor="middle"
    x="801.504"
    y="190"
    fill="black"
    dominant-baseline="middle"
    style="font-size:12px;font-family:sans-serif"
  >package-dependency-graph-core
  </text>
    </g><g >
      <rect
    x="579.618"
    y="256"
    width="57.08"
    height="32"
    stroke="#00ffff"
    fill="none"
  /><text text-anchor="middle"
    x="608.158"
    y="272"
    fill="black"
    dominant-baseline="middle"
    style="font-size:12px;font-family:sans-serif"
  >tslib
  </text>
    </g><g >
      <rect
    x="199.24400000000003"
    y="174"
    width="190.568"
    height="32"
    stroke="#7f0000"
    fill="none"
  /><text text-anchor="middle"
    x="294.528"
    y="190"
    fill="black"
    dominant-baseline="middle"
    style="font-size:12px;font-family:sans-serif"
  >dagre-abstract-renderer
  </text>
    </g><polyline
    points="335.82,36.338879775017574 42.24800000000005,67 42.24800000000005,92"
    stroke="#00007f"
    fill="none"
  /><polygon
    points="42.24800000000005,92 39.65980954897484,82.34074173710931 44.83619045102525,82.34074173710931"
    stroke="none"
    fill="#00007f"
  /><polyline
    points="335.82,38.47609093927136 109.4960000000001,67 109.4960000000001,108 109.4960000000001,149 109.4960000000001,190 109.4960000000001,231 210.8460000000001,262.9913003310494"
    stroke="#0000ff"
    fill="none"
  /><polygon
    points="210.8460000000001,262.9913003310494 200.85565830473922,262.55189981678893 202.41381055654747,257.6155974756335"
    stroke="none"
    fill="#0000ff"
  /><polyline
    points="354.645756097561,42 229.38599999999997,67 229.38599999999997,92"
    stroke="#007f00"
    fill="none"
  /><polygon
    points="229.38599999999997,92 226.79780954897475,82.34074173710931 231.97419045102518,82.34074173710931"
    stroke="none"
    fill="#007f00"
  /><polyline
    points="434.812,42 434.812,67 434.812,92"
    stroke="#007f7f"
    fill="none"
  /><polygon
    points="434.812,92 432.2238095489748,82.34074173710931 437.4001904510252,82.34074173710931"
    stroke="none"
    fill="#007f7f"
  /><polyline
    points="492.5165853658537,42 582.6800000000001,67 582.6800000000001,92"
    stroke="#007fff"
    fill="none"
  /><polygon
    points="582.6800000000001,92 580.0918095489749,82.34074173710931 585.2681904510252,82.34074173710931"
    stroke="none"
    fill="#007fff"
  /><polyline
    points="533.804,39.89822893695125 726.84,67 726.84,92"
    stroke="#00ff00"
    fill="none"
  /><polygon
    points="726.84,92 724.2518095489748,82.34074173710931 729.4281904510252,82.34074173710931"
    stroke="none"
    fill="#00ff00"
  /><polyline
    points="533.804,37.068340732822094 801.504,67 801.504,108 801.504,149 801.504,174"
    stroke="#00ff7f"
    fill="none"
  /><polygon
    points="801.504,174 798.9158095489748,164.3407417371093 804.0921904510252,164.3407417371093"
    stroke="none"
    fill="#00ff7f"
  /><polyline
    points="729.9543414634146,206 618.158,231 267.9260000000001,268.9107008965816"
    stroke="#0000ff"
    fill="none"
  /><polygon
    points="267.9260000000001,268.9107008965816 277.25063207330265,265.298051356765 277.8076930263316,270.4443706567815"
    stroke="none"
    fill="#0000ff"
  /><polyline
    points="805.4064390243902,206 811.504,231 636.698,266.24557158734376"
    stroke="#00ffff"
    fill="none"
  /><polygon
    points="636.698,266.24557158734376 645.6551542847556,261.7992936923977 646.6782621036879,266.87355912041306"
    stroke="none"
    fill="#00ffff"
  /><polyline
    points="273.00917073170734,206 239.38600000000008,231 239.38600000000008,256"
    stroke="#0000ff"
    fill="none"
  /><polygon
    points="239.38600000000008,256 236.79780954897487,246.3407417371093 241.9741904510253,246.3407417371093"
    stroke="none"
    fill="#0000ff"
  /><polyline
    points="316.0468292682927,206 349.6700000000001,231 579.618,267.47313608368665"
    stroke="#00ffff"
    fill="none"
  /><polygon
    points="579.618,267.47313608368665 569.6725464951985,268.51618669790946 570.4834593055735,263.4037176606358"
    stroke="none"
    fill="#00ffff"
  /><polyline
    points="203.96473170731707,124 164.24400000000003,149 164.24400000000003,190 164.24400000000003,231 210.8460000000001,256.42761704506137"
    stroke="#0000ff"
    fill="none"
  /><polygon
    points="210.8460000000001,256.42761704506137 201.12714422504897,254.0730804822322 203.6064922845899,249.52910068003646"
    stroke="none"
    fill="#0000ff"
  /><polyline
    points="254.80726829268292,124 294.528,149 294.528,174"
    stroke="#7f0000"
    fill="none"
  /><polygon
    points="294.528,174 291.93980954897484,164.3407417371093 297.1161904510252,164.3407417371093"
    stroke="none"
    fill="#7f0000"
  /><polyline
    points="430.9095609756098,124 424.812,149 424.812,190 424.812,231 267.9260000000001,265.68945023890933"
    stroke="#0000ff"
    fill="none"
  /><polygon
    points="267.9260000000001,265.68945023890933 276.7986696326926,261.07688765515 277.9162385931782,266.1311886811745"
    stroke="none"
    fill="#0000ff"
  /><polyline
    points="478.184,118.2583965017941 608.158,149 389.812,177.54378088830788"
    stroke="#7f0000"
    fill="none"
  /><polygon
    points="389.812,177.54378088830788 399.0542722127724,173.72535132302647 399.72525730759264,178.8580599885988"
    stroke="none"
    fill="#7f0000"
  />
</svg>