<svg
  version="1.1"
  xmlns="http://www.w3.org/2000/svg"
  xmlns:xlink="http://www.w3.org/1999/xlink"
  viewBox="0 0 834.792 298"
  color-interpolation-filters="sRGB"
>
<g >
      <rect
    x="400.568"
    y="10"
    width="197.984"
    height="32"
    stroke="#000000"
    fill="none"
  /><text text-anchor="middle"
    x="499.56"
    y="26"
    fill="black"
    dominant-baseline="middle"
    style="font-size:12px;font-family:sans-serif"
  >package-dependency-graph
  </text>
    </g><g >
      <rect
    x="10"
    y="92"
    width="64.49600000000001"
    height="32"
    stroke="#00007f"
    fill="none"
  /><text text-anchor="middle"
    x="42.248000000000005"
    y="108"
    fill="black"
    dominant-baseline="middle"
    style="font-size:12px;font-family:sans-serif"
  >canvas
  </text>
    </g><g >
      <rect
    x="265.59400000000005"
    y="256"
    width="57.08"
    height="32"
    stroke="#0000ff"
    fill="none"
  /><text text-anchor="middle"
    x="294.134"
    y="272"
    fill="black"
    dominant-baseline="middle"
    style="font-size:12px;font-family:sans-serif"
  >dagre
  </text>
    </g><g >
      <rect
    x="144.496"
    y="92"
    width="108.992"
    height="32"
    stroke="#007f00"
    fill="none"
  /><text text-anchor="middle"
    x="198.99200000000002"
    y="108"
    fill="black"
    dominant-baseline="middle"
    style="font-size:12px;font-family:sans-serif"
  >dagre-canvas
  </text>
    </g><g >
      <rect
    x="456.188"
    y="92"
    width="86.744"
    height="32"
    stroke="#007f7f"
    fill="none"
  /><text text-anchor="middle"
    x="499.56"
    y="108"
    fill="black"
    dominant-baseline="middle"
    style="font-size:12px;font-family:sans-serif"
  >dagre-svg
  </text>
    </g><g >
      <rect
    x="592.932"
    y="92"
    width="79.328"
    height="32"
    stroke="#007fff"
    fill="none"
  /><text text-anchor="middle"
    x="632.596"
    y="108"
    fill="black"
    dominant-baseline="middle"
    style="font-size:12px;font-family:sans-serif"
  >minimist
  </text>
    </g><g >
      <rect
    x="589.728"
    y="174"
    width="235.064"
    height="32"
    stroke="#00ff00"
    fill="none"
  /><text text-anchor="middle"
    x="707.26"
    y="190"
    fill="black"
    dominant-baseline="middle"
    style="font-size:12px;font-family:sans-serif"
  >package-dependency-graph-core
  </text>
    </g><g >
      <rect
    x="498.604"
    y="256"
    width="57.08"
    height="32"
    stroke="#00ff7f"
    fill="none"
  /><text text-anchor="middle"
    x="527.144"
    y="272"
    fill="black"
    dominant-baseline="middle"
    style="font-size:12px;font-family:sans-serif"
  >tslib
  </text>
    </g><g >
      <rect
    x="253.99200000000002"
    y="174"
    width="190.568"
    height="32"
    stroke="#00ffff"
    fill="none"
  /><text text-anchor="middle"
    x="349.276"
    y="190"
    fill="black"
    dominant-baseline="middle"
    style="font-size:12px;font-family:sans-serif"
  >dagre-abstract-renderer
  </text>
    </g><polyline
    points="400.568,34.87506122734588 42.248000000000005,67 42.248000000000005,92"
    stroke="#00007f"
    fill="none"
  /><polygon
    points="42.248000000000005,92 39.6598095489748,82.34074173710931 44.83619045102521,82.34074173710931"
    stroke="none"
    fill="#00007f"
  /><polyline
    points="400.568,36.40514377127856 109.49600000000004,67 109.49600000000004,108 109.49600000000004,149 109.49600000000004,190 109.49600000000004,231 265.59400000000005,265.66251800821067"
    stroke="#0000ff"
    fill="none"
  /><polygon
    points="265.59400000000005,265.66251800821067 255.60336810430204,266.09527004421085 256.7254829604664,261.04197631707723"
    stroke="none"
    fill="#0000ff"
  /><polyline
    points="400.568,39.50334034228527 198.99200000000002,67 198.99200000000002,92"
    stroke="#007f00"
    fill="none"
  /><polygon
    points="198.99200000000002,92 196.4038095489748,82.34074173710931 201.58019045102523,82.34074173710931"
    stroke="none"
    fill="#007f00"
  /><polyline
    points="499.56,42 499.56,67 499.56,92"
    stroke="#007f7f"
    fill="none"
  /><polygon
    points="499.56,92 496.9718095489748,82.34074173710931 502.1481904510252,82.34074173710931"
    stroke="none"
    fill="#007f7f"
  /><polyline
    points="551.476487804878,42 632.596,67 632.596,92"
    stroke="#007fff"
    fill="none"
  /><polygon
    points="632.596,92 630.0078095489748,82.34074173710931 635.1841904510252,82.34074173710931"
    stroke="none"
    fill="#007fff"
  /><polyline
    points="580.6136585365854,42 707.26,67 707.26,108 707.26,149 707.26,174"
    stroke="#00ff00"
    fill="none"
  /><polygon
    points="707.26,174 704.6718095489748,164.3407417371093 709.8481904510252,164.3407417371093"
    stroke="none"
    fill="#00ff00"
  /><polyline
    points="598.552,37.26682804414933 859.7919999999999,67 859.7919999999999,108 859.7919999999999,149 859.7919999999999,190 859.7919999999999,231 555.684,268.4823477068854"
    stroke="#00ff7f"
    fill="none"
  /><polygon
    points="555.684,268.4823477068854 564.9541074044935,264.73199989512784 565.5873224139804,269.8695049311227"
    stroke="none"
    fill="#00ff7f"
  /><polyline
    points="674.5380487804878,206 623.41,231 322.67400000000004,268.44632466380784"
    stroke="#0000ff"
    fill="none"
  /><polygon
    points="322.67400000000004,268.44632466380784 331.9394381248447,264.68445593209015 332.5790391591672,269.8211698388603"
    stroke="none"
    fill="#0000ff"
  /><polyline
    points="733.1199024390244,206 773.526,231 555.684,267.250708249791"
    stroke="#00ff7f"
    fill="none"
  /><polygon
    points="555.684,267.250708249791 564.7873786528721,263.1120493966804 565.6370866002115,268.2182138718359"
    stroke="none"
    fill="#00ff7f"
  /><polyline
    points="327.75717073170733,206 294.134,231 294.134,256"
    stroke="#0000ff"
    fill="none"
  /><polygon
    points="294.134,256 291.54580954897483,246.3407417371093 296.7221904510252,246.3407417371093"
    stroke="none"
    fill="#0000ff"
  /><polyline
    points="370.7948292682927,206 404.418,231 498.604,262.4654270488731"
    stroke="#00ff7f"
    fill="none"
  /><polygon
    points="498.604,262.4654270488731 488.6223687817123,261.8595902539319 490.2625721912256,256.94994138476284"
    stroke="none"
    fill="#00ff7f"
  /><polyline
    points="181.52936585365856,124 154.24400000000003,149 154.24400000000003,190 154.24400000000003,231 265.59400000000005,263.635284866681"
    stroke="#0000ff"
    fill="none"
  /><polygon
    points="265.59400000000005,263.635284866681 255.59671516422853,263.4022700335628 257.05260477991203,258.43484568385634"
    stroke="none"
    fill="#0000ff"
  /><polyline
    points="198.99200000000002,124 198.99200000000002,149 290.62858536585367,174"
    stroke="#00ffff"
    fill="none"
  /><polygon
    points="290.62858536585367,174 280.6286882416523,173.9546402668779 281.9911002876254,168.96076875670667"
    stroke="none"
    fill="#00ffff"
  /><polyline
    points="206.7968780487805,124 218.99200000000002,149 218.99200000000002,190 218.99200000000002,231 498.604,268.20271813910017"
    stroke="#00ff7f"
    fill="none"
  /><polygon
    points="498.604,268.20271813910017 488.68776648373023,269.49434999485794 489.3704739371728,264.36318738038875"
    stroke="none"
    fill="#00ff7f"
  /><polyline
    points="491.7551219512195,124 479.56,149 479.56,190 479.56,231 322.67400000000004,265.68945023890933"
    stroke="#0000ff"
    fill="none"
  /><polygon
    points="322.67400000000004,265.68945023890933 331.54666963269256,261.07688765515 332.66423859317814,266.1311886811745"
    stroke="none"
    fill="#0000ff"
  /><polyline
    points="499.56,124 499.56,149 407.92341463414635,174"
    stroke="#00ffff"
    fill="none"
  /><polygon
    points="407.92341463414635,174 416.56089971237463,168.96076875670667 417.9233117583477,173.9546402668779"
    stroke="none"
    fill="#00ffff"
  /><polyline
    points="514.2269268292682,124 537.144,149 537.144,190 537.144,231 531.0464390243902,256"
    stroke="#00ff7f"
    fill="none"
  /><polygon
    points="531.0464390243902,256 530.820780302028,246.00254641716091 535.8497396296585,247.22912186292447"
    stroke="none"
    fill="#00ff7f"
  />
</svg>