<svg
  version="1.1"
  xmlns="http://www.w3.org/2000/svg"
  xmlns:xlink="http://www.w3.org/1999/xlink"
  viewBox="0 0 1088.926 519"
  color-interpolation-filters="sRGB"
>
<path
    d="M 463.46199999999993 33.8020476503539 Q 42.24800000000005 67 42.24800000000005 82.76120467488713"
    stroke="#0000ff"
    fill="none"
  /><polygon
    points="42.24800000000005,92 38.42116567634915,82.76120467488713 46.07483432365095,82.76120467488713"
    stroke="none"
    fill="#0000ff"
  /><polyline
    points="542.7678461538461,42 468.73192866037766,102.17298702188751"
    stroke="#000000"
    fill="none"
  /><polygon
    points="461.56246153846155,108 466.3183008567194,99.20329650500186 471.1455564640359,105.14267753877316"
    stroke="none"
    fill="#000000"
  /><path
    d="M 561.9170243902439 42 Q 561.078 67 561.078 82.76120467488713"
    stroke="#007fff"
    fill="none"
  /><polygon
    points="561.078,92 557.251165676349,82.76120467488713 564.9048343236509,82.76120467488713"
    stroke="none"
    fill="#007fff"
  /><path
    d="M 618.1745853658537 42 Q 705.2379999999999 67 705.2379999999999 82.76120467488713"
    stroke="#00ff00"
    fill="none"
  /><polygon
    points="705.2379999999999,92 701.411165676349,82.76120467488713 709.0648343236509,82.76120467488713"
    stroke="none"
    fill="#00ff00"
  /><path
    d="M 661.4459999999999 37.95978312116926 Q 901.814 67 901.814 108"
    stroke="#00ff7f"
    fill="none"
  /><path
    d="M 901.814 108 Q 901.814 165 901.814 196.76120467488713"
    stroke="#00ff7f"
    fill="none"
  /><polygon
    points="901.814,206 897.987165676349,196.76120467488713 905.6408343236509,196.76120467488713"
    stroke="none"
    fill="#00ff7f"
  /><path
    d="M 661.4459999999999 41.12150340531438 Q 830.858 67 830.858 82.76120467488713"
    stroke="#00ffff"
    fill="none"
  /><polygon
    points="830.858,92 827.031165676349,82.76120467488713 834.6848343236509,82.76120467488713"
    stroke="none"
    fill="#00ffff"
  /><path
    d="M 810.0614146341463 238 Q 666.698 263 666.698 288"
    stroke="#7f0000"
    fill="none"
  /><polyline
    points="666.698,288 666.698,329 666.698,386 636.698,427"
    stroke="#7f0000"
    fill="none"
  /><path
    d="M 636.698 427 Q 636.698 452 523.6593403122337 475.7529728325633"
    stroke="#7f0000"
    fill="none"
  /><polygon
    points="514.6179999999999,477.65284241169354 522.8723885658178,472.00792705320544 524.4462920586495,479.49801861192105"
    stroke="none"
    fill="#7f0000"
  /><path
    d="M 929.4058048780488 238 Q 972.518 263 972.518 288"
    stroke="#7f007f"
    fill="none"
  /><path
    d="M 972.518 288 Q 972.518 329 972.518 360.76120467488715"
    stroke="#7f007f"
    fill="none"
  /><polygon
    points="972.518,370 968.6911656763491,360.76120467488715 976.344834323651,360.76120467488715"
    stroke="none"
    fill="#7f007f"
  /><path
    d="M 874.2221951219512 238 Q 831.11 263 831.11 288"
    stroke="#7f00ff"
    fill="none"
  /><polyline
    points="831.11,288 831.11,329 831.11,386 831.11,427"
    stroke="#7f00ff"
    fill="none"
  /><path
    d="M 831.11 427 Q 831.11 452 822.9653842507189 468.6964622860262"
    stroke="#7f00ff"
    fill="none"
  /><polygon
    points="818.9148780487805,477 819.5259463139145,467.01868768270697 826.4048221875233,470.3742368893454"
    stroke="none"
    fill="#7f00ff"
  /><polyline
    points="375.8844349593496,386 426.92396883095273,469.1268270122705"
    stroke="#7f0000"
    fill="none"
  /><polygon
    points="431.7580650406504,477 423.66279380052566,471.12917522414364 430.1851438613798,467.1244788003973"
    stroke="none"
    fill="#7f0000"
  /><polyline
    points="471.58200000000005,332.5533212568506 774.2169151840505,475.56587696063826"
    stroke="#7f00ff"
    fill="none"
  /><polygon
    points="782.57,479.51319416563734 772.5818828627513,479.0258379790573 775.8519475053498,472.1059159422192"
    stroke="none"
    fill="#7f00ff"
  /><path
    d="M 361.692 181 Q 361.692 222 361.692 263"
    stroke="#7f7f00"
    fill="none"
  /><path
    d="M 361.692 263 Q 361.692 288 296.11225907637186 310.05500178709855"
    stroke="#7f7f00"
    fill="none"
  /><polygon
    points="287.3554146341464,313 294.89240087542356,306.4277980555373 297.3321172773202,313.68220551865977"
    stroke="none"
    fill="#7f7f00"
  /><path
    d="M 213.82400000000007 181 Q 213.82400000000007 222 213.82400000000007 263"
    stroke="#7f7f00"
    fill="none"
  /><path
    d="M 213.82400000000007 263 Q 213.82400000000007 288 224.7090421344443 305.1939716255283"
    stroke="#7f7f00"
    fill="none"
  /><polygon
    points="229.65082926829277,313 221.47567931346893,307.2409268787292 227.94240495541968,303.1470163723274"
    stroke="none"
    fill="#7f7f00"
  /><path
    d="M 972.518 402 C 972.518 427 972.518 452 972.518 467.76120467488715"
    stroke="#7f7f7f"
    fill="none"
  /><polygon
    points="972.518,477 968.6911656763491,467.76120467488715 976.344834323651,467.76120467488715"
    stroke="none"
    fill="#7f7f7f"
  /><path
    d="M 878.8469756097561 402 C 732.486 427 732.486 452 774.3781176546228 473.84545207366114"
    stroke="#7f00ff"
    fill="none"
  /><polygon
    points="782.57,478.117266992267 772.6086739793885,477.2386408424811 776.147561329857,470.45226330484115"
    stroke="none"
    fill="#7f00ff"
  /><g >
      <rect
    x="463.46199999999993"
    y="10"
    width="197.984"
    height="32"
    stroke="#00007f"
    fill="none"
  /><text text-anchor="middle"
    x="562.454"
    y="26"
    fill="black"
    dominant-baseline="middle"
    style="font-size:12px;font-family:sans-serif"
  >package-dependency-graph
  </text>
    </g><g >
      <rect
    x="10.000000000000043"
    y="92"
    width="64.49600000000001"
    height="32"
    stroke="#0000ff"
    fill="none"
  /><text text-anchor="middle"
    x="42.24800000000005"
    y="108"
    fill="black"
    dominant-baseline="middle"
    style="font-size:12px;font-family:sans-serif"
  >canvas
  </text>
    </g><g >
      <rect
    x="307.196"
    y="149"
    width="108.992"
    height="32"
    stroke="#007f00"
    fill="none"
  /><text text-anchor="middle"
    x="361.692"
    y="165"
    fill="black"
    dominant-baseline="middle"
    style="font-size:12px;font-family:sans-serif"
  >dagre-canvas
  </text>
    </g><g >
      <rect
    x="170.45200000000006"
    y="149"
    width="86.744"
    height="32"
    stroke="#007f7f"
    fill="none"
  /><text text-anchor="middle"
    x="213.82400000000007"
    y="165"
    fill="black"
    dominant-baseline="middle"
    style="font-size:12px;font-family:sans-serif"
  >dagre-svg
  </text>
    </g><g >
      <rect
    x="506.582"
    y="92"
    width="108.992"
    height="32"
    stroke="#007fff"
    fill="none"
  /><text text-anchor="middle"
    x="561.078"
    y="108"
    fill="black"
    dominant-baseline="middle"
    style="font-size:12px;font-family:sans-serif"
  >graphviz-cli
  </text>
    </g><g >
      <rect
    x="665.574"
    y="92"
    width="79.328"
    height="32"
    stroke="#00ff00"
    fill="none"
  /><text text-anchor="middle"
    x="705.2379999999999"
    y="108"
    fill="black"
    dominant-baseline="middle"
    style="font-size:12px;font-family:sans-serif"
  >minimist
  </text>
    </g><g >
      <rect
    x="784.2819999999999"
    y="206"
    width="235.064"
    height="32"
    stroke="#00ff7f"
    fill="none"
  /><text text-anchor="middle"
    x="901.814"
    y="222"
    fill="black"
    dominant-baseline="middle"
    style="font-size:12px;font-family:sans-serif"
  >package-dependency-graph-core
  </text>
    </g><g >
      <rect
    x="794.9019999999999"
    y="92"
    width="71.912"
    height="32"
    stroke="#00ffff"
    fill="none"
  /><text text-anchor="middle"
    x="830.858"
    y="108"
    fill="black"
    dominant-baseline="middle"
    style="font-size:12px;font-family:sans-serif"
  >ts-node
  </text>
    </g><g >
      <rect
    x="368.546"
    y="477"
    width="146.072"
    height="32"
    stroke="#7f0000"
    fill="none"
  /><text text-anchor="middle"
    x="441.582"
    y="493"
    fill="black"
    dominant-baseline="middle"
    style="font-size:12px;font-family:sans-serif"
  >dagre-cluster-fix
  </text>
    </g><g >
      <rect
    x="866.11"
    y="370"
    width="212.816"
    height="32"
    stroke="#7f007f"
    fill="none"
  /><text text-anchor="middle"
    x="972.518"
    y="386"
    fill="black"
    dominant-baseline="middle"
    style="font-size:12px;font-family:sans-serif"
  >package-dependency-collect
  </text>
    </g><g >
      <rect
    x="782.57"
    y="477"
    width="57.08"
    height="32"
    stroke="#7f00ff"
    fill="none"
  /><text text-anchor="middle"
    x="811.11"
    y="493"
    fill="black"
    dominant-baseline="middle"
    style="font-size:12px;font-family:sans-serif"
  >tslib
  </text>
    </g><g >
      <rect
    x="144.4960000000001"
    y="313"
    width="190.568"
    height="32"
    stroke="#7f7f00"
    fill="none"
  /><text text-anchor="middle"
    x="239.7800000000001"
    y="329"
    fill="black"
    dominant-baseline="middle"
    style="font-size:12px;font-family:sans-serif"
  >dagre-abstract-renderer
  </text>
    </g><g >
      <rect
    x="947.686"
    y="477"
    width="49.664"
    height="32"
    stroke="#7f7f7f"
    fill="none"
  /><text text-anchor="middle"
    x="972.518"
    y="493"
    fill="black"
    dominant-baseline="middle"
    style="font-size:12px;font-family:sans-serif"
  >glob
  </text>
    </g><g >
      <rect
    x="109.49600000000015"
    y="108"
    width="362.0859999999999"
    height="278"
    stroke="#000000"
    fill="none"
  /><text text-anchor="middle"
    x="290.5390000000001"
    y="124"
    fill="black"
    dominant-baseline="middle"
    style="font-size:12px;font-family:sans-serif"
  >dagre renderer
  </text>
    </g>
</svg>