<svg
  version="1.1"
  xmlns="http://www.w3.org/2000/svg"
  xmlns:xlink="http://www.w3.org/1999/xlink"
  viewBox="0 0 1011.174 298"
  color-interpolation-filters="sRGB"
>
<path
    d="M 236.96999999999997 39.818449239736616 Q 42.24800000000005 67 42.24800000000005 82.76120467488713"
    stroke="#00007f"
    fill="none"
  /><polygon
    points="42.24800000000005,92 38.42116567634915,82.76120467488713 46.07483432365095,82.76120467488713"
    stroke="none"
    fill="#00007f"
  /><path
    d="M 274.70541463414634 42 Q 178.99199999999996 67 178.99199999999996 82.76120467488713"
    stroke="#0000ff"
    fill="none"
  /><polygon
    points="178.99199999999996,92 175.16516567634906,82.76120467488713 182.81883432365086,82.76120467488713"
    stroke="none"
    fill="#0000ff"
  /><path
    d="M 354.87165853658536 42 Q 384.418 67 384.418 82.76120467488713"
    stroke="#007f00"
    fill="none"
  /><polygon
    points="384.418,92 380.59116567634914,82.76120467488713 388.2448343236509,82.76120467488713"
    stroke="none"
    fill="#007f00"
  /><path
    d="M 412.57624390243905 42 Q 532.2860000000001 67 532.2860000000001 82.76120467488713"
    stroke="#007f7f"
    fill="none"
  /><polygon
    points="532.2860000000001,92 528.4591656763491,82.76120467488713 536.112834323651,82.76120467488713"
    stroke="none"
    fill="#007f7f"
  /><path
    d="M 434.954 37.920301688185056 Q 676.4459999999999 67 676.4459999999999 82.76120467488713"
    stroke="#007fff"
    fill="none"
  /><polygon
    points="676.4459999999999,92 672.619165676349,82.76120467488713 680.2728343236508,82.76120467488713"
    stroke="none"
    fill="#007fff"
  /><path
    d="M 434.954 33.41066316096991 Q 883.6419999999999 67 883.6419999999999 82.76120467488713"
    stroke="#00ff00"
    fill="none"
  /><polygon
    points="883.6419999999999,92 879.815165676349,82.76120467488713 887.4688343236509,82.76120467488713"
    stroke="none"
    fill="#00ff00"
  /><path
    d="M 766.1099999999999 123.52872555717397 Q 573.3259999999999 149 573.3259999999999 190"
    stroke="#00ff7f"
    fill="none"
  /><path
    d="M 573.3259999999999 190 Q 573.3259999999999 231 281.8419620223014 267.3035722529273"
    stroke="#00ff7f"
    fill="none"
  /><polygon
    points="272.67400000000004,268.44541787163723 281.36899408089545,263.5060780439686 282.31492996370736,271.10106646188603"
    stroke="none"
    fill="#00ff7f"
  /><path
    d="M 835.8800487804878 124 Q 761.252 149 761.252 164.76120467488713"
    stroke="#00ffff"
    fill="none"
  /><polygon
    points="761.252,174 757.425165676349,164.76120467488713 765.0788343236509,164.76120467488713"
    stroke="none"
    fill="#00ffff"
  /><path
    d="M 911.2338048780487 124 Q 954.3459999999999 149 954.3459999999999 190"
    stroke="#7f0000"
    fill="none"
  /><path
    d="M 954.3459999999999 190 Q 954.3459999999999 231 610.0700372075576 267.95089155158905"
    stroke="#7f0000"
    fill="none"
  /><polygon
    points="600.884,268.936822320302 609.6616513115958,264.14591035575484 610.4784231035194,271.7558727474233"
    stroke="none"
    fill="#7f0000"
  /><path
    d="M 222.61517073170737 206 Q 188.99200000000008 231 215.201190621166 250.4874472356426"
    stroke="#00ff7f"
    fill="none"
  /><polygon
    points="222.61517073170737,256 212.91781650287186,253.5584183485932 217.48456473946013,247.416476122692"
    stroke="none"
    fill="#00ff7f"
  /><path
    d="M 265.65282926829275 206 Q 299.27600000000007 231 534.6676148896383 266.34305085354254"
    stroke="#7f0000"
    fill="none"
  /><polygon
    points="543.8040000000001,267.71484025956903 534.0994011129424,270.127465477318 535.2358286663342,262.5586362297671"
    stroke="none"
    fill="#7f0000"
  /><path
    d="M 153.57073170731707 124 Q 113.85000000000002 149 113.85000000000002 190"
    stroke="#00ff7f"
    fill="none"
  /><path
    d="M 113.85000000000002 190 Q 113.85000000000002 231 206.78128497436018 260.2452080374318"
    stroke="#00ff7f"
    fill="none"
  /><polygon
    points="215.59400000000002,263.01854410365047 205.63253156271398,263.895554122381 207.9300383860064,256.59486195248263"
    stroke="none"
    fill="#00ff7f"
  /><path
    d="M 204.41326829268291 124 Q 244.13400000000001 149 244.13400000000001 164.76120467488713"
    stroke="#7f007f"
    fill="none"
  /><polygon
    points="244.13400000000001,174 240.30716567634911,164.76120467488713 247.96083432365091,164.76120467488713"
    stroke="none"
    fill="#7f007f"
  /><path
    d="M 380.5155609756098 124 Q 374.418 149 374.418 190"
    stroke="#00ff7f"
    fill="none"
  /><path
    d="M 374.418 190 Q 374.418 231 281.48671502563985 260.2452080374318"
    stroke="#00ff7f"
    fill="none"
  /><polygon
    points="272.67400000000004,263.01854410365047 280.3379616139936,256.59486195248263 282.6354684372861,263.895554122381"
    stroke="none"
    fill="#00ff7f"
  /><path
    d="M 427.79 118.52793236554811 Q 553.3259999999999 149 348.57662478222113 176.15052260061367"
    stroke="#7f007f"
    fill="none"
  /><polygon
    points="339.418,177.3649900385521 348.0735758983665,172.35689600313134 349.07967366607573,179.94414919809597"
    stroke="none"
    fill="#7f007f"
  /><path
    d="M 748.7657560975609 206 Q 729.256 231 849.8807157245452 263.03407915683"
    stroke="#7f00ff"
    fill="none"
  /><polygon
    points="858.81,265.4054124078608 848.8984773310619,266.73270980600813 850.8629541180285,259.33544850765185"
    stroke="none"
    fill="#7f00ff"
  /><path
    d="M 784.9413658536585 206 Q 821.9559999999999 231 610.0006319179156 265.814712799727"
    stroke="#7f0000"
    fill="none"
  /><polygon
    points="600.884,267.3121644792718 609.3803671232497,262.03848021616295 610.6208967125814,269.59094538329106"
    stroke="none"
    fill="#7f0000"
  /><g >
      <rect
    x="236.96999999999997"
    y="10"
    width="197.984"
    height="32"
    stroke="#000000"
    fill="none"
  /><text text-anchor="middle"
    x="335.962"
    y="26"
    fill="black"
    dominant-baseline="middle"
    style="font-size:12px;font-family:sans-serif"
  >package-dependency-graph
  </text>
    </g><g >
      <rect
    x="10.000000000000043"
    y="92"
    width="64.49600000000001"
    height="32"
    stroke="#00007f"
    fill="none"
  /><text text-anchor="middle"
    x="42.24800000000005"
    y="108"
    fill="black"
    dominant-baseline="middle"
    style="font-size:12px;font-family:sans-serif"
  >canvas
  </text>
    </g><g >
      <rect
    x="124.49599999999995"
    y="92"
    width="108.992"
    height="32"
    stroke="#0000ff"
    fill="none"
  /><text text-anchor="middle"
    x="178.99199999999996"
    y="108"
    fill="black"
    dominant-baseline="middle"
    style="font-size:12px;font-family:sans-serif"
  >dagre-canvas
  </text>
    </g><g >
      <rect
    x="341.046"
    y="92"
    width="86.744"
    height="32"
    stroke="#007f00"
    fill="none"
  /><text text-anchor="middle"
    x="384.418"
    y="108"
    fill="black"
    dominant-baseline="middle"
    style="font-size:12px;font-family:sans-serif"
  >dagre-svg
  </text>
    </g><g >
      <rect
    x="477.7900000000001"
    y="92"
    width="108.992"
    height="32"
    stroke="#007f7f"
    fill="none"
  /><text text-anchor="middle"
    x="532.2860000000001"
    y="108"
    fill="black"
    dominant-baseline="middle"
    style="font-size:12px;font-family:sans-serif"
  >graphviz-cli
  </text>
    </g><g >
      <rect
    x="636.7819999999999"
    y="92"
    width="79.328"
    height="32"
    stroke="#007fff"
    fill="none"
  /><text text-anchor="middle"
    x="676.4459999999999"
    y="108"
    fill="black"
    dominant-baseline="middle"
    style="font-size:12px;font-family:sans-serif"
  >minimist
  </text>
    </g><g >
      <rect
    x="766.1099999999999"
    y="92"
    width="235.064"
    height="32"
    stroke="#00ff00"
    fill="none"
  /><text text-anchor="middle"
    x="883.6419999999999"
    y="108"
    fill="black"
    dominant-baseline="middle"
    style="font-size:12px;font-family:sans-serif"
  >package-dependency-graph-core
  </text>
    </g><g >
      <rect
    x="215.59400000000002"
    y="256"
    width="57.08"
    height="32"
    stroke="#00ff7f"
    fill="none"
  /><text text-anchor="middle"
    x="244.13400000000001"
    y="272"
    fill="black"
    dominant-baseline="middle"
    style="font-size:12px;font-family:sans-serif"
  >dagre
  </text>
    </g><g >
      <rect
    x="654.8439999999999"
    y="174"
    width="212.816"
    height="32"
    stroke="#00ffff"
    fill="none"
  /><text text-anchor="middle"
    x="761.252"
    y="190"
    fill="black"
    dominant-baseline="middle"
    style="font-size:12px;font-family:sans-serif"
  >package-dependency-collect
  </text>
    </g><g >
      <rect
    x="543.8040000000001"
    y="256"
    width="57.08"
    height="32"
    stroke="#7f0000"
    fill="none"
  /><text text-anchor="middle"
    x="572.344"
    y="272"
    fill="black"
    dominant-baseline="middle"
    style="font-size:12px;font-family:sans-serif"
  >tslib
  </text>
    </g><g >
      <rect
    x="148.85000000000002"
    y="174"
    width="190.568"
    height="32"
    stroke="#7f007f"
    fill="none"
  /><text text-anchor="middle"
    x="244.13400000000001"
    y="190"
    fill="black"
    dominant-baseline="middle"
    style="font-size:12px;font-family:sans-serif"
  >dagre-abstract-renderer
  </text>
    </g><g >
      <rect
    x="858.81"
    y="256"
    width="49.664"
    height="32"
    stroke="#7f00ff"
    fill="none"
  /><text text-anchor="middle"
    x="883.6419999999999"
    y="272"
    fill="black"
    dominant-baseline="middle"
    style="font-size:12px;font-family:sans-serif"
  >glob
  </text>
    </g>
</svg>