<?xml version="1.0" encoding="UTF-8" standalone="no"?>
<!DOCTYPE svg PUBLIC "-//W3C//DTD SVG 1.1//EN"
 "http://www.w3.org/Graphics/SVG/1.1/DTD/svg11.dtd">
<!-- Generated by graphviz version 2.47.3 (20210619.1520)
 -->
<!-- Pages: 1 -->
<svg width="890pt" height="265pt"
 viewBox="0.00 0.00 890.38 264.80" xmlns="http://www.w3.org/2000/svg" xmlns:xlink="http://www.w3.org/1999/xlink">
<g id="graph0" class="graph" transform="scale(1 1) rotate(0) translate(4 260.8)">
<polygon fill="white" stroke="transparent" points="-4,4 -4,-260.8 886.38,-260.8 886.38,4 -4,4"/>
<g id="clust1" class="cluster">
<title>cluster_dagre_renderer</title>
<polygon fill="none" stroke="#000000" points="8,-64 8,-212.8 264,-212.8 264,-64 8,-64"/>
<text text-anchor="middle" x="136" y="-196.2" font-family="Times,serif" font-size="14.00">dagre renderer</text>
</g>
<!-- dagre_abstract_renderer -->
<g id="node1" class="node">
<title>dagre_abstract_renderer</title>
<ellipse fill="none" stroke="#7f00ff" cx="155" cy="-90" rx="101.2" ry="18"/>
<text text-anchor="middle" x="155" y="-85.8" font-family="Times,serif" font-size="14.00">dagre&#45;abstract&#45;renderer</text>
</g>
<!-- dagre_cluster_fix -->
<g id="node9" class="node">
<title>dagre_cluster_fix</title>
<ellipse fill="none" stroke="#00ffff" cx="178" cy="-18" rx="75.26" ry="18"/>
<text text-anchor="middle" x="178" y="-13.8" font-family="Times,serif" font-size="14.00">dagre&#45;cluster&#45;fix</text>
</g>
<!-- dagre_abstract_renderer&#45;&gt;dagre_cluster_fix -->
<g id="edge9" class="edge">
<title>dagre_abstract_renderer&#45;&gt;dagre_cluster_fix</title>
<path fill="none" stroke="#00ffff" d="M163.21,-64C165.15,-58.11 167.22,-51.8 169.18,-45.83"/>
<polygon fill="#00ffff" stroke="#00ffff" points="172.58,-46.7 172.38,-36.1 165.93,-44.51 172.58,-46.7"/>
</g>
<!-- tslib -->
<g id="node11" class="node">
<title>tslib</title>
<ellipse fill="none" stroke="#7f007f" cx="322" cy="-18" rx="27.84" ry="18"/>
<text text-anchor="middle" x="322" y="-13.8" font-family="Times,serif" font-size="14.00">tslib</text>
</g>
<!-- dagre_abstract_renderer&#45;&gt;tslib -->
<g id="edge10" class="edge">
<title>dagre_abstract_renderer&#45;&gt;tslib</title>
<path fill="none" stroke="#7f007f" d="M214.64,-64C240.02,-53.36 268.62,-41.37 289.91,-32.45"/>
<polygon fill="#7f007f" stroke="#7f007f" points="291.29,-35.67 299.16,-28.57 288.58,-29.21 291.29,-35.67"/>
</g>
<!-- dagre_canvas -->
<g id="node2" class="node">
<title>dagre_canvas</title>
<ellipse fill="none" stroke="#007f00" cx="194" cy="-162" rx="61.94" ry="18"/>
<text text-anchor="middle" x="194" y="-157.8" font-family="Times,serif" font-size="14.00">dagre&#45;canvas</text>
</g>
<!-- dagre_canvas&#45;&gt;dagre_abstract_renderer -->
<g id="edge11" class="edge">
<title>dagre_canvas&#45;&gt;dagre_abstract_renderer</title>
<path fill="none" stroke="#7f00ff" d="M184.56,-144.05C180.08,-136.01 174.61,-126.2 169.61,-117.23"/>
<polygon fill="#7f00ff" stroke="#7f00ff" points="172.55,-115.31 164.62,-108.28 166.43,-118.71 172.55,-115.31"/>
</g>
<!-- dagre_svg -->
<g id="node3" class="node">
<title>dagre_svg</title>
<ellipse fill="none" stroke="#007f7f" cx="65" cy="-162" rx="49.22" ry="18"/>
<text text-anchor="middle" x="65" y="-157.8" font-family="Times,serif" font-size="14.00">dagre&#45;svg</text>
</g>
<!-- dagre_svg&#45;&gt;dagre_abstract_renderer -->
<g id="edge12" class="edge">
<title>dagre_svg&#45;&gt;dagre_abstract_renderer</title>
<path fill="none" stroke="#7f00ff" d="M84.97,-145.46C96.9,-136.19 112.25,-124.25 125.55,-113.91"/>
<polygon fill="#7f00ff" stroke="#7f00ff" points="127.77,-116.62 133.51,-107.71 123.47,-111.09 127.77,-116.62"/>
</g>
<!-- package_dependency_graph -->
<g id="node4" class="node">
<title>package_dependency_graph</title>
<ellipse fill="none" stroke="#00007f" cx="603" cy="-238.8" rx="117.41" ry="18"/>
<text text-anchor="middle" x="603" y="-234.6" font-family="Times,serif" font-size="14.00">package&#45;dependency&#45;graph</text>
</g>
<!-- package_dependency_graph&#45;&gt;dagre_canvas -->
<g id="edge2" class="edge">
<title>package_dependency_graph&#45;&gt;dagre_canvas</title>
<path fill="none" stroke="#000000" d="M487.16,-235.77C411.68,-233.3 319.2,-227.83 273.73,-215.46"/>
<polygon fill="#000000" stroke="#000000" points="274.58,-212.05 264,-212.44 272.51,-218.74 274.58,-212.05"/>
</g>
<!-- canvas -->
<g id="node5" class="node">
<title>canvas</title>
<ellipse fill="none" stroke="#0000ff" cx="603" cy="-162" rx="37.12" ry="18"/>
<text text-anchor="middle" x="603" y="-157.8" font-family="Times,serif" font-size="14.00">canvas</text>
</g>
<!-- package_dependency_graph&#45;&gt;canvas -->
<g id="edge1" class="edge">
<title>package_dependency_graph&#45;&gt;canvas</title>
<path fill="none" stroke="#0000ff" d="M603,-220.45C603,-211.58 603,-200.56 603,-190.56"/>
<polygon fill="#0000ff" stroke="#0000ff" points="606.5,-190.25 603,-180.25 599.5,-190.25 606.5,-190.25"/>
</g>
<!-- graphviz_cli -->
<g id="node6" class="node">
<title>graphviz_cli</title>
<ellipse fill="none" stroke="#007fff" cx="716" cy="-162" rx="57.88" ry="18"/>
<text text-anchor="middle" x="716" y="-157.8" font-family="Times,serif" font-size="14.00">graphviz&#45;cli</text>
</g>
<!-- package_dependency_graph&#45;&gt;graphviz_cli -->
<g id="edge3" class="edge">
<title>package_dependency_graph&#45;&gt;graphviz_cli</title>
<path fill="none" stroke="#007fff" d="M634.52,-221.44C639.44,-218.67 644.4,-215.74 649,-212.8 662.17,-204.39 676.13,-194.23 687.88,-185.28"/>
<polygon fill="#007fff" stroke="#007fff" points="690.22,-187.9 696,-179.03 685.95,-182.36 690.22,-187.9"/>
</g>
<!-- minimist -->
<g id="node7" class="node">
<title>minimist</title>
<ellipse fill="none" stroke="#00ff00" cx="837" cy="-162" rx="45.26" ry="18"/>
<text text-anchor="middle" x="837" y="-157.8" font-family="Times,serif" font-size="14.00">minimist</text>
</g>
<!-- package_dependency_graph&#45;&gt;minimist -->
<g id="edge4" class="edge">
<title>package_dependency_graph&#45;&gt;minimist</title>
<path fill="none" stroke="#00ff00" d="M702.33,-229.24C735.68,-225.25 768.17,-219.81 783,-212.8 795.74,-206.78 807.54,-196.68 816.84,-187.15"/>
<polygon fill="#00ff00" stroke="#00ff00" points="819.5,-189.42 823.73,-179.71 814.36,-184.67 819.5,-189.42"/>
</g>
<!-- package_dependency_graph_core -->
<g id="node8" class="node">
<title>package_dependency_graph_core</title>
<ellipse fill="none" stroke="#00ff7f" cx="411" cy="-162" rx="137.07" ry="18"/>
<text text-anchor="middle" x="411" y="-157.8" font-family="Times,serif" font-size="14.00">package&#45;dependency&#45;graph&#45;core</text>
</g>
<!-- package_dependency_graph&#45;&gt;package_dependency_graph_core -->
<g id="edge5" class="edge">
<title>package_dependency_graph&#45;&gt;package_dependency_graph_core</title>
<path fill="none" stroke="#00ff7f" d="M561.81,-221.75C532.65,-210.39 493.35,-195.08 462.18,-182.94"/>
<polygon fill="#00ff7f" stroke="#00ff7f" points="463.37,-179.65 452.78,-179.28 460.83,-186.17 463.37,-179.65"/>
</g>
<!-- package_dependency_graph_core&#45;&gt;dagre_cluster_fix -->
<g id="edge6" class="edge">
<title>package_dependency_graph_core&#45;&gt;dagre_cluster_fix</title>
<path fill="none" stroke="#00ffff" d="M379.83,-144.28C362.14,-134.39 339.84,-121.24 321,-108 295.95,-90.4 293.64,-80.73 268,-64 253.58,-54.59 236.93,-45.76 221.9,-38.45"/>
<polygon fill="#00ffff" stroke="#00ffff" points="223.31,-35.25 212.78,-34.11 220.3,-41.57 223.31,-35.25"/>
</g>
<!-- package_dependency_collect -->
<g id="node10" class="node">
<title>package_dependency_collect</title>
<ellipse fill="none" stroke="#7f0000" cx="471" cy="-90" rx="120.91" ry="18"/>
<text text-anchor="middle" x="471" y="-85.8" font-family="Times,serif" font-size="14.00">package&#45;dependency&#45;collect</text>
</g>
<!-- package_dependency_graph_core&#45;&gt;package_dependency_collect -->
<g id="edge7" class="edge">
<title>package_dependency_graph_core&#45;&gt;package_dependency_collect</title>
<path fill="none" stroke="#7f0000" d="M425.52,-144.05C432.71,-135.67 441.53,-125.38 449.49,-116.1"/>
<polygon fill="#7f0000" stroke="#7f0000" points="452.34,-118.15 456.19,-108.28 447.03,-113.59 452.34,-118.15"/>
</g>
<!-- package_dependency_graph_core&#45;&gt;tslib -->
<g id="edge8" class="edge">
<title>package_dependency_graph_core&#45;&gt;tslib</title>
<path fill="none" stroke="#7f007f" d="M379.97,-144.4C366.02,-135.41 350.57,-123.05 341,-108 329.23,-89.5 324.64,-64.91 322.9,-46.26"/>
<polygon fill="#7f007f" stroke="#7f007f" points="326.38,-45.79 322.17,-36.06 319.39,-46.28 326.38,-45.79"/>
</g>
<!-- package_dependency_collect&#45;&gt;tslib -->
<g id="edge14" class="edge">
<title>package_dependency_collect&#45;&gt;tslib</title>
<path fill="none" stroke="#7f007f" d="M436.07,-72.59C410.86,-60.74 377.13,-44.9 352.9,-33.52"/>
<polygon fill="#7f007f" stroke="#7f007f" points="354.33,-30.32 343.79,-29.24 351.36,-36.66 354.33,-30.32"/>
</g>
<!-- glob -->
<g id="node12" class="node">
<title>glob</title>
<ellipse fill="none" stroke="#7f7f00" cx="471" cy="-18" rx="28.41" ry="18"/>
<text text-anchor="middle" x="471" y="-13.8" font-family="Times,serif" font-size="14.00">glob</text>
</g>
<!-- package_dependency_collect&#45;&gt;glob -->
<g id="edge13" class="edge">
<title>package_dependency_collect&#45;&gt;glob</title>
<path fill="none" stroke="#7f7f00" d="M471,-71.7C471,-63.98 471,-54.71 471,-46.11"/>
<polygon fill="#7f7f00" stroke="#7f7f00" points="474.5,-46.1 471,-36.1 467.5,-46.1 474.5,-46.1"/>
</g>
</g>
</svg>
