<?xml version="1.0" encoding="UTF-8" standalone="no"?>
<!DOCTYPE svg PUBLIC "-//W3C//DTD SVG 1.1//EN"
 "http://www.w3.org/Graphics/SVG/1.1/DTD/svg11.dtd">
<!-- Generated by graphviz version 2.44.0 (20200408.0750)
 -->
<!-- Pages: 1 -->
<svg width="621pt" height="260pt"
 viewBox="0.00 0.00 620.69 260.00" xmlns="http://www.w3.org/2000/svg" xmlns:xlink="http://www.w3.org/1999/xlink">
<g id="graph0" class="graph" transform="scale(1 1) rotate(0) translate(4 256)">
<polygon fill="white" stroke="transparent" points="-4,4 -4,-256 616.69,-256 616.69,4 -4,4"/>
<!-- package_dependency_graph -->
<g id="node1" class="node">
<title>package_dependency_graph</title>
<ellipse fill="none" stroke="#000000" cx="315.31" cy="-234" rx="117.41" ry="18"/>
<text text-anchor="middle" x="315.31" y="-229.8" font-family="Times,serif" font-size="14.00">package&#45;dependency&#45;graph</text>
</g>
<!-- canvas -->
<g id="node2" class="node">
<title>canvas</title>
<ellipse fill="none" stroke="#00007f" cx="37.31" cy="-162" rx="37.12" ry="18"/>
<text text-anchor="middle" x="37.31" y="-157.8" font-family="Times,serif" font-size="14.00">canvas</text>
</g>
<!-- package_dependency_graph&#45;&gt;canvas -->
<g id="edge1" class="edge">
<title>package_dependency_graph&#45;&gt;canvas</title>
<path fill="none" stroke="#00007f" d="M245.41,-219.49C199.05,-209.93 137.06,-196 83.31,-180 80.56,-179.18 77.73,-178.28 74.89,-177.34"/>
<polygon fill="#00007f" stroke="#00007f" points="75.93,-173.99 65.33,-174.01 73.63,-180.6 75.93,-173.99"/>
</g>
<!-- dagre_canvas -->
<g id="node3" class="node">
<title>dagre_canvas</title>
<ellipse fill="none" stroke="#0000ff" cx="270.31" cy="-162" rx="61.94" ry="18"/>
<text text-anchor="middle" x="270.31" y="-157.8" font-family="Times,serif" font-size="14.00">dagre&#45;canvas</text>
</g>
<!-- package_dependency_graph&#45;&gt;dagre_canvas -->
<g id="edge2" class="edge">
<title>package_dependency_graph&#45;&gt;dagre_canvas</title>
<path fill="none" stroke="#0000ff" d="M304.42,-216.05C299.05,-207.71 292.48,-197.49 286.54,-188.25"/>
<polygon fill="#0000ff" stroke="#0000ff" points="289.45,-186.31 281.1,-179.79 283.57,-190.09 289.45,-186.31"/>
</g>
<!-- dagre_svg -->
<g id="node4" class="node">
<title>dagre_svg</title>
<ellipse fill="none" stroke="#007f00" cx="141.31" cy="-162" rx="49.22" ry="18"/>
<text text-anchor="middle" x="141.31" y="-157.8" font-family="Times,serif" font-size="14.00">dagre&#45;svg</text>
</g>
<!-- package_dependency_graph&#45;&gt;dagre_svg -->
<g id="edge3" class="edge">
<title>package_dependency_graph&#45;&gt;dagre_svg</title>
<path fill="none" stroke="#007f00" d="M275.39,-216.94C247.66,-205.78 210.79,-190.95 182.73,-179.67"/>
<polygon fill="#007f00" stroke="#007f00" points="183.79,-176.32 173.21,-175.83 181.18,-182.81 183.79,-176.32"/>
</g>
<!-- graphviz_cli -->
<g id="node5" class="node">
<title>graphviz_cli</title>
<ellipse fill="none" stroke="#007f7f" cx="446.31" cy="-162" rx="57.88" ry="18"/>
<text text-anchor="middle" x="446.31" y="-157.8" font-family="Times,serif" font-size="14.00">graphviz&#45;cli</text>
</g>
<!-- package_dependency_graph&#45;&gt;graphviz_cli -->
<g id="edge4" class="edge">
<title>package_dependency_graph&#45;&gt;graphviz_cli</title>
<path fill="none" stroke="#007f7f" d="M346.02,-216.59C365.04,-206.43 389.57,-193.32 409.61,-182.61"/>
<polygon fill="#007f7f" stroke="#007f7f" points="411.3,-185.68 418.47,-177.88 408,-179.5 411.3,-185.68"/>
</g>
<!-- minimist -->
<g id="node6" class="node">
<title>minimist</title>
<ellipse fill="none" stroke="#007fff" cx="567.31" cy="-162" rx="45.26" ry="18"/>
<text text-anchor="middle" x="567.31" y="-157.8" font-family="Times,serif" font-size="14.00">minimist</text>
</g>
<!-- package_dependency_graph&#45;&gt;minimist -->
<g id="edge5" class="edge">
<title>package_dependency_graph&#45;&gt;minimist</title>
<path fill="none" stroke="#007fff" d="M373.11,-218.24C412.7,-207.95 466.33,-193.68 513.31,-180 516.62,-179.04 520.03,-178.02 523.46,-176.98"/>
<polygon fill="#007fff" stroke="#007fff" points="524.57,-180.3 533.1,-174.02 522.51,-173.61 524.57,-180.3"/>
</g>
<!-- package_dependency_graph_core -->
<g id="node7" class="node">
<title>package_dependency_graph_core</title>
<ellipse fill="none" stroke="#00ff00" cx="435.31" cy="-90" rx="137.07" ry="18"/>
<text text-anchor="middle" x="435.31" y="-85.8" font-family="Times,serif" font-size="14.00">package&#45;dependency&#45;graph&#45;core</text>
</g>
<!-- package_dependency_graph&#45;&gt;package_dependency_graph_core -->
<g id="edge6" class="edge">
<title>package_dependency_graph&#45;&gt;package_dependency_graph_core</title>
<path fill="none" stroke="#00ff00" d="M326.21,-215.88C338.28,-197.42 358.77,-167.5 379.31,-144 388.21,-133.82 398.8,-123.42 408.37,-114.56"/>
<polygon fill="#00ff00" stroke="#00ff00" points="410.73,-117.14 415.77,-107.82 406.02,-111.97 410.73,-117.14"/>
</g>
<!-- dagre -->
<g id="node8" class="node">
<title>dagre</title>
<ellipse fill="none" stroke="#00ff7f" cx="205.31" cy="-18" rx="32.46" ry="18"/>
<text text-anchor="middle" x="205.31" y="-13.8" font-family="Times,serif" font-size="14.00">dagre</text>
</g>
<!-- dagre_canvas&#45;&gt;dagre -->
<g id="edge11" class="edge">
<title>dagre_canvas&#45;&gt;dagre</title>
<path fill="none" stroke="#00ff7f" d="M269.19,-143.76C267.42,-125.19 262.87,-95.19 251.31,-72 245.67,-60.7 237.06,-49.86 228.81,-40.97"/>
<polygon fill="#00ff7f" stroke="#00ff7f" points="231.21,-38.41 221.73,-33.68 226.19,-43.29 231.21,-38.41"/>
</g>
<!-- dagre_abstract_renderer -->
<g id="node10" class="node">
<title>dagre_abstract_renderer</title>
<ellipse fill="none" stroke="#7f0000" cx="141.31" cy="-90" rx="101.2" ry="18"/>
<text text-anchor="middle" x="141.31" y="-85.8" font-family="Times,serif" font-size="14.00">dagre&#45;abstract&#45;renderer</text>
</g>
<!-- dagre_canvas&#45;&gt;dagre_abstract_renderer -->
<g id="edge12" class="edge">
<title>dagre_canvas&#45;&gt;dagre_abstract_renderer</title>
<path fill="none" stroke="#7f0000" d="M242.32,-145.81C224.2,-135.98 200.34,-123.03 180.37,-112.19"/>
<polygon fill="#7f0000" stroke="#7f0000" points="181.95,-109.07 171.5,-107.38 178.62,-115.23 181.95,-109.07"/>
</g>
<!-- dagre_svg&#45;&gt;dagre -->
<g id="edge13" class="edge">
<title>dagre_svg&#45;&gt;dagre</title>
<path fill="none" stroke="#00ff7f" d="M106.97,-149.05C78.03,-138.19 39.99,-121.82 31.31,-108 22.8,-94.45 21.79,-84.86 31.31,-72 61.29,-31.53 121.44,-20.92 162.54,-18.66"/>
<polygon fill="#00ff7f" stroke="#00ff7f" points="162.7,-22.16 172.55,-18.26 162.42,-15.17 162.7,-22.16"/>
</g>
<!-- dagre_svg&#45;&gt;dagre_abstract_renderer -->
<g id="edge14" class="edge">
<title>dagre_svg&#45;&gt;dagre_abstract_renderer</title>
<path fill="none" stroke="#7f0000" d="M141.31,-143.7C141.31,-135.98 141.31,-126.71 141.31,-118.11"/>
<polygon fill="#7f0000" stroke="#7f0000" points="144.81,-118.1 141.31,-108.1 137.81,-118.1 144.81,-118.1"/>
</g>
<!-- package_dependency_graph_core&#45;&gt;dagre -->
<g id="edge7" class="edge">
<title>package_dependency_graph_core&#45;&gt;dagre</title>
<path fill="none" stroke="#00ff7f" d="M383.69,-73.29C340.9,-60.27 281.07,-42.06 242.75,-30.4"/>
<polygon fill="#00ff7f" stroke="#00ff7f" points="243.61,-27 233.02,-27.43 241.57,-33.69 243.61,-27"/>
</g>
<!-- tslib -->
<g id="node9" class="node">
<title>tslib</title>
<ellipse fill="none" stroke="#00ffff" cx="359.31" cy="-18" rx="27.84" ry="18"/>
<text text-anchor="middle" x="359.31" y="-13.8" font-family="Times,serif" font-size="14.00">tslib</text>
</g>
<!-- package_dependency_graph_core&#45;&gt;tslib -->
<g id="edge8" class="edge">
<title>package_dependency_graph_core&#45;&gt;tslib</title>
<path fill="none" stroke="#00ffff" d="M416.91,-72.05C406.59,-62.55 393.61,-50.59 382.59,-40.44"/>
<polygon fill="#00ffff" stroke="#00ffff" points="384.7,-37.62 374.97,-33.42 379.95,-42.77 384.7,-37.62"/>
</g>
<!-- dagre_abstract_renderer&#45;&gt;dagre -->
<g id="edge9" class="edge">
<title>dagre_abstract_renderer&#45;&gt;dagre</title>
<path fill="none" stroke="#00ff7f" d="M156.8,-72.05C165.09,-62.99 175.42,-51.69 184.41,-41.86"/>
<polygon fill="#00ff7f" stroke="#00ff7f" points="187.1,-44.1 191.27,-34.36 181.94,-39.37 187.1,-44.1"/>
</g>
<!-- dagre_abstract_renderer&#45;&gt;tslib -->
<g id="edge10" class="edge">
<title>dagre_abstract_renderer&#45;&gt;tslib</title>
<path fill="none" stroke="#00ffff" d="M188.08,-73.98C229.24,-60.76 288.23,-41.83 325.12,-29.98"/>
<polygon fill="#00ffff" stroke="#00ffff" points="326.45,-33.23 334.9,-26.84 324.31,-26.56 326.45,-33.23"/>
</g>
</g>
</svg>
