<?xml version="1.0" encoding="UTF-8" standalone="no"?>
<!DOCTYPE svg PUBLIC "-//W3C//DTD SVG 1.1//EN"
 "http://www.w3.org/Graphics/SVG/1.1/DTD/svg11.dtd">
<!-- Generated by graphviz version 2.44.0 (20200408.0750)
 -->
<!-- Pages: 1 -->
<svg width="708pt" height="260pt"
 viewBox="0.00 0.00 708.34 260.00" xmlns="http://www.w3.org/2000/svg" xmlns:xlink="http://www.w3.org/1999/xlink">
<g id="graph0" class="graph" transform="scale(1 1) rotate(0) translate(4 256)">
<polygon fill="white" stroke="transparent" points="-4,4 -4,-256 704.34,-256 704.34,4 -4,4"/>
<!-- package_dependency_graph -->
<g id="node1" class="node">
<title>package_dependency_graph</title>
<ellipse fill="none" stroke="#000000" cx="308.31" cy="-234" rx="117.41" ry="18"/>
<text text-anchor="middle" x="308.31" y="-229.8" font-family="Times,serif" font-size="14.00">package&#45;dependency&#45;graph</text>
</g>
<!-- canvas -->
<g id="node2" class="node">
<title>canvas</title>
<ellipse fill="none" stroke="#00007f" cx="37.31" cy="-162" rx="37.12" ry="18"/>
<text text-anchor="middle" x="37.31" y="-157.8" font-family="Times,serif" font-size="14.00">canvas</text>
</g>
<!-- package_dependency_graph&#45;&gt;canvas -->
<g id="edge1" class="edge">
<title>package_dependency_graph&#45;&gt;canvas</title>
<path fill="none" stroke="#00007f" d="M243.43,-218.9C199.42,-208.96 140.05,-194.83 88.31,-180 84.43,-178.89 80.41,-177.67 76.41,-176.41"/>
<polygon fill="#00007f" stroke="#00007f" points="77.16,-172.97 66.57,-173.23 75.01,-179.64 77.16,-172.97"/>
</g>
<!-- dagre -->
<g id="node3" class="node">
<title>dagre</title>
<ellipse fill="none" stroke="#0000ff" cx="269.31" cy="-18" rx="32.46" ry="18"/>
<text text-anchor="middle" x="269.31" y="-13.8" font-family="Times,serif" font-size="14.00">dagre</text>
</g>
<!-- package_dependency_graph&#45;&gt;dagre -->
<g id="edge2" class="edge">
<title>package_dependency_graph&#45;&gt;dagre</title>
<path fill="none" stroke="#0000ff" d="M230.16,-220.55C185.16,-211.61 134.89,-197.97 121.31,-180 99.5,-151.14 145.63,-75.85 149.31,-72 170.84,-49.47 203.64,-35.89 229.51,-28.12"/>
<polygon fill="#0000ff" stroke="#0000ff" points="230.73,-31.41 239.4,-25.32 228.83,-24.67 230.73,-31.41"/>
</g>
<!-- dagre_canvas -->
<g id="node4" class="node">
<title>dagre_canvas</title>
<ellipse fill="none" stroke="#007f00" cx="308.31" cy="-162" rx="61.94" ry="18"/>
<text text-anchor="middle" x="308.31" y="-157.8" font-family="Times,serif" font-size="14.00">dagre&#45;canvas</text>
</g>
<!-- package_dependency_graph&#45;&gt;dagre_canvas -->
<g id="edge3" class="edge">
<title>package_dependency_graph&#45;&gt;dagre_canvas</title>
<path fill="none" stroke="#007f00" d="M308.31,-215.7C308.31,-207.98 308.31,-198.71 308.31,-190.11"/>
<polygon fill="#007f00" stroke="#007f00" points="311.81,-190.1 308.31,-180.1 304.81,-190.1 311.81,-190.1"/>
</g>
<!-- dagre_svg -->
<g id="node5" class="node">
<title>dagre_svg</title>
<ellipse fill="none" stroke="#007f7f" cx="179.31" cy="-162" rx="49.22" ry="18"/>
<text text-anchor="middle" x="179.31" y="-157.8" font-family="Times,serif" font-size="14.00">dagre&#45;svg</text>
</g>
<!-- package_dependency_graph&#45;&gt;dagre_svg -->
<g id="edge4" class="edge">
<title>package_dependency_graph&#45;&gt;dagre_svg</title>
<path fill="none" stroke="#007f7f" d="M278.06,-216.59C259.16,-206.33 234.73,-193.08 214.9,-182.31"/>
<polygon fill="#007f7f" stroke="#007f7f" points="216.32,-179.1 205.87,-177.41 212.99,-185.26 216.32,-179.1"/>
</g>
<!-- graphviz_cli -->
<g id="node6" class="node">
<title>graphviz_cli</title>
<ellipse fill="none" stroke="#007fff" cx="484.31" cy="-162" rx="57.88" ry="18"/>
<text text-anchor="middle" x="484.31" y="-157.8" font-family="Times,serif" font-size="14.00">graphviz&#45;cli</text>
</g>
<!-- package_dependency_graph&#45;&gt;graphviz_cli -->
<g id="edge5" class="edge">
<title>package_dependency_graph&#45;&gt;graphviz_cli</title>
<path fill="none" stroke="#007fff" d="M348.69,-216.94C376.1,-206.04 412.35,-191.62 440.47,-180.44"/>
<polygon fill="#007fff" stroke="#007fff" points="442.05,-183.58 450.05,-176.63 439.46,-177.07 442.05,-183.58"/>
</g>
<!-- minimist -->
<g id="node7" class="node">
<title>minimist</title>
<ellipse fill="none" stroke="#00ff00" cx="605.31" cy="-162" rx="45.26" ry="18"/>
<text text-anchor="middle" x="605.31" y="-157.8" font-family="Times,serif" font-size="14.00">minimist</text>
</g>
<!-- package_dependency_graph&#45;&gt;minimist -->
<g id="edge6" class="edge">
<title>package_dependency_graph&#45;&gt;minimist</title>
<path fill="none" stroke="#00ff00" d="M378.1,-219.52C426.89,-209.67 493.41,-195.39 551.31,-180 554.69,-179.1 558.17,-178.12 561.66,-177.11"/>
<polygon fill="#00ff00" stroke="#00ff00" points="562.88,-180.4 571.45,-174.17 560.87,-173.69 562.88,-180.4"/>
</g>
<!-- package_dependency_graph_core -->
<g id="node8" class="node">
<title>package_dependency_graph_core</title>
<ellipse fill="none" stroke="#00ff7f" cx="563.31" cy="-90" rx="137.07" ry="18"/>
<text text-anchor="middle" x="563.31" y="-85.8" font-family="Times,serif" font-size="14.00">package&#45;dependency&#45;graph&#45;core</text>
</g>
<!-- package_dependency_graph&#45;&gt;package_dependency_graph_core -->
<g id="edge7" class="edge">
<title>package_dependency_graph&#45;&gt;package_dependency_graph_core</title>
<path fill="none" stroke="#00ff7f" d="M332.19,-216.25C346.22,-206.14 364.13,-192.78 379.31,-180 397.11,-165.02 397.52,-156.23 417.31,-144 441.01,-129.36 469.36,-117.91 494.74,-109.45"/>
<polygon fill="#00ff7f" stroke="#00ff7f" points="495.87,-112.76 504.31,-106.36 493.72,-106.1 495.87,-112.76"/>
</g>
<!-- dagre_canvas&#45;&gt;dagre -->
<g id="edge12" class="edge">
<title>dagre_canvas&#45;&gt;dagre</title>
<path fill="none" stroke="#0000ff" d="M339.39,-146.43C354.38,-137.6 370.9,-124.78 379.31,-108 386.48,-93.7 387.82,-85.55 379.31,-72 364.1,-47.78 334.37,-34.37 309.65,-27.1"/>
<polygon fill="#0000ff" stroke="#0000ff" points="310.33,-23.66 299.77,-24.43 308.51,-30.42 310.33,-23.66"/>
</g>
<!-- dagre_abstract_renderer -->
<g id="node10" class="node">
<title>dagre_abstract_renderer</title>
<ellipse fill="none" stroke="#7f0000" cx="269.31" cy="-90" rx="101.2" ry="18"/>
<text text-anchor="middle" x="269.31" y="-85.8" font-family="Times,serif" font-size="14.00">dagre&#45;abstract&#45;renderer</text>
</g>
<!-- dagre_canvas&#45;&gt;dagre_abstract_renderer -->
<g id="edge13" class="edge">
<title>dagre_canvas&#45;&gt;dagre_abstract_renderer</title>
<path fill="none" stroke="#7f0000" d="M298.87,-144.05C294.38,-136.01 288.92,-126.2 283.92,-117.23"/>
<polygon fill="#7f0000" stroke="#7f0000" points="286.86,-115.31 278.93,-108.28 280.74,-118.71 286.86,-115.31"/>
</g>
<!-- dagre_svg&#45;&gt;dagre -->
<g id="edge14" class="edge">
<title>dagre_svg&#45;&gt;dagre</title>
<path fill="none" stroke="#0000ff" d="M168.64,-144.33C158.04,-125.45 145.24,-94.39 159.31,-72 174.52,-47.78 204.25,-34.37 228.97,-27.1"/>
<polygon fill="#0000ff" stroke="#0000ff" points="230.11,-30.42 238.85,-24.43 228.29,-23.66 230.11,-30.42"/>
</g>
<!-- dagre_svg&#45;&gt;dagre_abstract_renderer -->
<g id="edge15" class="edge">
<title>dagre_svg&#45;&gt;dagre_abstract_renderer</title>
<path fill="none" stroke="#7f0000" d="M199.28,-145.46C211.21,-136.19 226.56,-124.25 239.86,-113.91"/>
<polygon fill="#7f0000" stroke="#7f0000" points="242.08,-116.62 247.82,-107.71 237.78,-111.09 242.08,-116.62"/>
</g>
<!-- package_dependency_graph_core&#45;&gt;dagre -->
<g id="edge8" class="edge">
<title>package_dependency_graph_core&#45;&gt;dagre</title>
<path fill="none" stroke="#0000ff" d="M500.24,-73.98C442.11,-60.14 357.66,-40.04 308.62,-28.36"/>
<polygon fill="#0000ff" stroke="#0000ff" points="309.26,-24.91 298.72,-26 307.64,-31.72 309.26,-24.91"/>
</g>
<!-- tslib -->
<g id="node9" class="node">
<title>tslib</title>
<ellipse fill="none" stroke="#00ffff" cx="455.31" cy="-18" rx="27.84" ry="18"/>
<text text-anchor="middle" x="455.31" y="-13.8" font-family="Times,serif" font-size="14.00">tslib</text>
</g>
<!-- package_dependency_graph_core&#45;&gt;tslib -->
<g id="edge9" class="edge">
<title>package_dependency_graph_core&#45;&gt;tslib</title>
<path fill="none" stroke="#00ffff" d="M537.44,-72.23C521.01,-61.59 499.77,-47.81 483,-36.95"/>
<polygon fill="#00ffff" stroke="#00ffff" points="484.5,-33.75 474.2,-31.25 480.69,-39.62 484.5,-33.75"/>
</g>
<!-- dagre_abstract_renderer&#45;&gt;dagre -->
<g id="edge10" class="edge">
<title>dagre_abstract_renderer&#45;&gt;dagre</title>
<path fill="none" stroke="#0000ff" d="M269.31,-71.7C269.31,-63.98 269.31,-54.71 269.31,-46.11"/>
<polygon fill="#0000ff" stroke="#0000ff" points="272.81,-46.1 269.31,-36.1 265.81,-46.1 272.81,-46.1"/>
</g>
<!-- dagre_abstract_renderer&#45;&gt;tslib -->
<g id="edge11" class="edge">
<title>dagre_abstract_renderer&#45;&gt;tslib</title>
<path fill="none" stroke="#00ffff" d="M310.59,-73.46C344.29,-60.78 391.29,-43.09 422.47,-31.36"/>
<polygon fill="#00ffff" stroke="#00ffff" points="423.88,-34.57 432,-27.77 421.41,-28.02 423.88,-34.57"/>
</g>
</g>
</svg>
