<?xml version="1.0" encoding="UTF-8" standalone="no"?>
<!DOCTYPE svg PUBLIC "-//W3C//DTD SVG 1.1//EN"
 "http://www.w3.org/Graphics/SVG/1.1/DTD/svg11.dtd">
<!-- Generated by graphviz version 2.44.0 (20200408.0750)
 -->
<!-- Pages: 1 -->
<svg width="875pt" height="260pt"
 viewBox="0.00 0.00 874.69 260.00" xmlns="http://www.w3.org/2000/svg" xmlns:xlink="http://www.w3.org/1999/xlink">
<g id="graph0" class="graph" transform="scale(1 1) rotate(0) translate(4 256)">
<polygon fill="white" stroke="transparent" points="-4,4 -4,-256 870.69,-256 870.69,4 -4,4"/>
<!-- package_dependency_graph -->
<g id="node1" class="node">
<title>package_dependency_graph</title>
<ellipse fill="none" stroke="#000000" cx="385.31" cy="-234" rx="117.41" ry="18"/>
<text text-anchor="middle" x="385.31" y="-229.8" font-family="Times,serif" font-size="14.00">package&#45;dependency&#45;graph</text>
</g>
<!-- canvas -->
<g id="node2" class="node">
<title>canvas</title>
<ellipse fill="none" stroke="#00007f" cx="37.31" cy="-162" rx="37.12" ry="18"/>
<text text-anchor="middle" x="37.31" y="-157.8" font-family="Times,serif" font-size="14.00">canvas</text>
</g>
<!-- package_dependency_graph&#45;&gt;canvas -->
<g id="edge1" class="edge">
<title>package_dependency_graph&#45;&gt;canvas</title>
<path fill="none" stroke="#00007f" d="M298.16,-221.95C237.34,-213.21 154.61,-199.26 83.31,-180 80.54,-179.25 77.69,-178.4 74.85,-177.5"/>
<polygon fill="#00007f" stroke="#00007f" points="75.86,-174.14 65.27,-174.24 73.61,-180.77 75.86,-174.14"/>
</g>
<!-- dagre_canvas -->
<g id="node3" class="node">
<title>dagre_canvas</title>
<ellipse fill="none" stroke="#0000ff" cx="154.31" cy="-162" rx="61.94" ry="18"/>
<text text-anchor="middle" x="154.31" y="-157.8" font-family="Times,serif" font-size="14.00">dagre&#45;canvas</text>
</g>
<!-- package_dependency_graph&#45;&gt;dagre_canvas -->
<g id="edge2" class="edge">
<title>package_dependency_graph&#45;&gt;dagre_canvas</title>
<path fill="none" stroke="#0000ff" d="M334.9,-217.72C296.64,-206.13 244.22,-190.25 205.71,-178.58"/>
<polygon fill="#0000ff" stroke="#0000ff" points="206.33,-175.11 195.74,-175.56 204.3,-181.81 206.33,-175.11"/>
</g>
<!-- dagre_svg -->
<g id="node4" class="node">
<title>dagre_svg</title>
<ellipse fill="none" stroke="#007f00" cx="283.31" cy="-162" rx="49.22" ry="18"/>
<text text-anchor="middle" x="283.31" y="-157.8" font-family="Times,serif" font-size="14.00">dagre&#45;svg</text>
</g>
<!-- package_dependency_graph&#45;&gt;dagre_svg -->
<g id="edge3" class="edge">
<title>package_dependency_graph&#45;&gt;dagre_svg</title>
<path fill="none" stroke="#007f00" d="M360.88,-216.23C346.79,-206.56 328.94,-194.32 313.92,-184.01"/>
<polygon fill="#007f00" stroke="#007f00" points="315.68,-180.97 305.45,-178.2 311.72,-186.74 315.68,-180.97"/>
</g>
<!-- graphviz_cli -->
<g id="node5" class="node">
<title>graphviz_cli</title>
<ellipse fill="none" stroke="#007f7f" cx="700.31" cy="-162" rx="57.88" ry="18"/>
<text text-anchor="middle" x="700.31" y="-157.8" font-family="Times,serif" font-size="14.00">graphviz&#45;cli</text>
</g>
<!-- package_dependency_graph&#45;&gt;graphviz_cli -->
<g id="edge4" class="edge">
<title>package_dependency_graph&#45;&gt;graphviz_cli</title>
<path fill="none" stroke="#007f7f" d="M453.09,-219.24C503.03,-208.92 572.54,-194.2 633.31,-180 637.96,-178.91 642.78,-177.75 647.61,-176.57"/>
<polygon fill="#007f7f" stroke="#007f7f" points="648.61,-179.93 657.48,-174.13 646.93,-173.13 648.61,-179.93"/>
</g>
<!-- minimist -->
<g id="node6" class="node">
<title>minimist</title>
<ellipse fill="none" stroke="#007fff" cx="821.31" cy="-162" rx="45.26" ry="18"/>
<text text-anchor="middle" x="821.31" y="-157.8" font-family="Times,serif" font-size="14.00">minimist</text>
</g>
<!-- package_dependency_graph&#45;&gt;minimist -->
<g id="edge5" class="edge">
<title>package_dependency_graph&#45;&gt;minimist</title>
<path fill="none" stroke="#007fff" d="M483.06,-223.99C560.73,-215.74 671.78,-201.51 767.31,-180 770.93,-179.19 774.65,-178.24 778.37,-177.23"/>
<polygon fill="#007fff" stroke="#007fff" points="779.5,-180.54 788.13,-174.4 777.55,-173.82 779.5,-180.54"/>
</g>
<!-- package_dependency_graph_core -->
<g id="node7" class="node">
<title>package_dependency_graph_core</title>
<ellipse fill="none" stroke="#00ff00" cx="487.31" cy="-162" rx="137.07" ry="18"/>
<text text-anchor="middle" x="487.31" y="-157.8" font-family="Times,serif" font-size="14.00">package&#45;dependency&#45;graph&#45;core</text>
</g>
<!-- package_dependency_graph&#45;&gt;package_dependency_graph_core -->
<g id="edge6" class="edge">
<title>package_dependency_graph&#45;&gt;package_dependency_graph_core</title>
<path fill="none" stroke="#00ff00" d="M409.74,-216.23C423.14,-207.04 439.94,-195.51 454.47,-185.54"/>
<polygon fill="#00ff00" stroke="#00ff00" points="456.46,-188.42 462.72,-179.87 452.5,-182.65 456.46,-188.42"/>
</g>
<!-- dagre -->
<g id="node8" class="node">
<title>dagre</title>
<ellipse fill="none" stroke="#00ff7f" cx="346.31" cy="-18" rx="32.46" ry="18"/>
<text text-anchor="middle" x="346.31" y="-13.8" font-family="Times,serif" font-size="14.00">dagre</text>
</g>
<!-- dagre_canvas&#45;&gt;dagre -->
<g id="edge12" class="edge">
<title>dagre_canvas&#45;&gt;dagre</title>
<path fill="none" stroke="#00ff7f" d="M152.93,-143.98C152.29,-124.19 154.4,-91.72 172.31,-72 205.73,-35.2 263.85,-23.62 303.65,-20.15"/>
<polygon fill="#00ff7f" stroke="#00ff7f" points="304.13,-23.63 313.85,-19.41 303.62,-16.65 304.13,-23.63"/>
</g>
<!-- dagre_abstract_renderer -->
<g id="node11" class="node">
<title>dagre_abstract_renderer</title>
<ellipse fill="none" stroke="#7f007f" cx="282.31" cy="-90" rx="101.2" ry="18"/>
<text text-anchor="middle" x="282.31" y="-85.8" font-family="Times,serif" font-size="14.00">dagre&#45;abstract&#45;renderer</text>
</g>
<!-- dagre_canvas&#45;&gt;dagre_abstract_renderer -->
<g id="edge13" class="edge">
<title>dagre_canvas&#45;&gt;dagre_abstract_renderer</title>
<path fill="none" stroke="#7f007f" d="M182.08,-145.81C200.06,-135.98 223.73,-123.03 243.55,-112.19"/>
<polygon fill="#7f007f" stroke="#7f007f" points="245.26,-115.25 252.36,-107.38 241.9,-109.11 245.26,-115.25"/>
</g>
<!-- dagre_svg&#45;&gt;dagre -->
<g id="edge14" class="edge">
<title>dagre_svg&#45;&gt;dagre</title>
<path fill="none" stroke="#00ff7f" d="M317.34,-149C346.02,-138.12 383.71,-121.74 392.31,-108 406.11,-85.94 388.07,-59.26 370.69,-40.9"/>
<polygon fill="#00ff7f" stroke="#00ff7f" points="372.92,-38.18 363.37,-33.58 367.96,-43.13 372.92,-38.18"/>
</g>
<!-- dagre_svg&#45;&gt;dagre_abstract_renderer -->
<g id="edge15" class="edge">
<title>dagre_svg&#45;&gt;dagre_abstract_renderer</title>
<path fill="none" stroke="#7f007f" d="M283.06,-143.7C282.95,-135.98 282.82,-126.71 282.7,-118.11"/>
<polygon fill="#7f007f" stroke="#7f007f" points="286.2,-118.05 282.55,-108.1 279.2,-118.15 286.2,-118.05"/>
</g>
<!-- package_dependency_graph_core&#45;&gt;dagre -->
<g id="edge7" class="edge">
<title>package_dependency_graph_core&#45;&gt;dagre</title>
<path fill="none" stroke="#00ff7f" d="M473.65,-143.92C458.62,-125.48 433.37,-95.58 409.31,-72 397.81,-60.73 384.23,-49.12 372.63,-39.64"/>
<polygon fill="#00ff7f" stroke="#00ff7f" points="374.57,-36.71 364.59,-33.16 370.18,-42.16 374.57,-36.71"/>
</g>
<!-- package_dependency_collect -->
<g id="node9" class="node">
<title>package_dependency_collect</title>
<ellipse fill="none" stroke="#00ffff" cx="636.31" cy="-90" rx="120.91" ry="18"/>
<text text-anchor="middle" x="636.31" y="-85.8" font-family="Times,serif" font-size="14.00">package&#45;dependency&#45;collect</text>
</g>
<!-- package_dependency_graph_core&#45;&gt;package_dependency_collect -->
<g id="edge8" class="edge">
<title>package_dependency_graph_core&#45;&gt;package_dependency_collect</title>
<path fill="none" stroke="#00ffff" d="M522.24,-144.59C543.17,-134.76 569.96,-122.17 592.31,-111.67"/>
<polygon fill="#00ffff" stroke="#00ffff" points="594.03,-114.73 601.59,-107.31 591.05,-108.39 594.03,-114.73"/>
</g>
<!-- tslib -->
<g id="node10" class="node">
<title>tslib</title>
<ellipse fill="none" stroke="#7f0000" cx="487.31" cy="-18" rx="27.84" ry="18"/>
<text text-anchor="middle" x="487.31" y="-13.8" font-family="Times,serif" font-size="14.00">tslib</text>
</g>
<!-- package_dependency_graph_core&#45;&gt;tslib -->
<g id="edge9" class="edge">
<title>package_dependency_graph_core&#45;&gt;tslib</title>
<path fill="none" stroke="#7f0000" d="M487.31,-143.87C487.31,-119.67 487.31,-75.21 487.31,-46.39"/>
<polygon fill="#7f0000" stroke="#7f0000" points="490.81,-46.19 487.31,-36.19 483.81,-46.19 490.81,-46.19"/>
</g>
<!-- package_dependency_collect&#45;&gt;tslib -->
<g id="edge17" class="edge">
<title>package_dependency_collect&#45;&gt;tslib</title>
<path fill="none" stroke="#7f0000" d="M601.38,-72.59C576.16,-60.74 542.44,-44.9 518.21,-33.52"/>
<polygon fill="#7f0000" stroke="#7f0000" points="519.64,-30.32 509.1,-29.24 516.66,-36.66 519.64,-30.32"/>
</g>
<!-- glob -->
<g id="node12" class="node">
<title>glob</title>
<ellipse fill="none" stroke="#7f00ff" cx="636.31" cy="-18" rx="28.41" ry="18"/>
<text text-anchor="middle" x="636.31" y="-13.8" font-family="Times,serif" font-size="14.00">glob</text>
</g>
<!-- package_dependency_collect&#45;&gt;glob -->
<g id="edge16" class="edge">
<title>package_dependency_collect&#45;&gt;glob</title>
<path fill="none" stroke="#7f00ff" d="M636.31,-71.7C636.31,-63.98 636.31,-54.71 636.31,-46.11"/>
<polygon fill="#7f00ff" stroke="#7f00ff" points="639.81,-46.1 636.31,-36.1 632.81,-46.1 639.81,-46.1"/>
</g>
<!-- dagre_abstract_renderer&#45;&gt;dagre -->
<g id="edge10" class="edge">
<title>dagre_abstract_renderer&#45;&gt;dagre</title>
<path fill="none" stroke="#00ff7f" d="M297.8,-72.05C306.09,-62.99 316.42,-51.69 325.41,-41.86"/>
<polygon fill="#00ff7f" stroke="#00ff7f" points="328.1,-44.1 332.27,-34.36 322.94,-39.37 328.1,-44.1"/>
</g>
<!-- dagre_abstract_renderer&#45;&gt;tslib -->
<g id="edge11" class="edge">
<title>dagre_abstract_renderer&#45;&gt;tslib</title>
<path fill="none" stroke="#7f0000" d="M326.79,-73.81C364.95,-60.78 419.1,-42.29 453.71,-30.47"/>
<polygon fill="#7f0000" stroke="#7f0000" points="455.03,-33.72 463.36,-27.18 452.77,-27.1 455.03,-33.72"/>
</g>
</g>
</svg>
