<?xml version="1.0" encoding="UTF-8" standalone="no"?>
<!DOCTYPE svg PUBLIC "-//W3C//DTD SVG 1.1//EN"
 "http://www.w3.org/Graphics/SVG/1.1/DTD/svg11.dtd">
<!-- Generated by graphviz version 2.47.3 (20210619.1520)
 -->
<!-- Pages: 1 -->
<svg width="987pt" height="265pt"
 viewBox="0.00 0.00 987.31 264.80" xmlns="http://www.w3.org/2000/svg" xmlns:xlink="http://www.w3.org/1999/xlink">
<g id="graph0" class="graph" transform="scale(1 1) rotate(0) translate(4 260.8)">
<polygon fill="white" stroke="transparent" points="-4,4 -4,-260.8 983.31,-260.8 983.31,4 -4,4"/>
<g id="clust1" class="cluster">
<title>cluster_dagre_renderer</title>
<polygon fill="none" stroke="#000000" points="8,-64 8,-212.8 264,-212.8 264,-64 8,-64"/>
<text text-anchor="middle" x="136" y="-196.2" font-family="Times,serif" font-size="14.00">dagre renderer</text>
</g>
<!-- dagre_abstract_renderer -->
<g id="node1" class="node">
<title>dagre_abstract_renderer</title>
<ellipse fill="none" stroke="#7f7f00" cx="155" cy="-90" rx="101.2" ry="18"/>
<text text-anchor="middle" x="155" y="-85.8" font-family="Times,serif" font-size="14.00">dagre&#45;abstract&#45;renderer</text>
</g>
<!-- dagre_cluster_fix -->
<g id="node10" class="node">
<title>dagre_cluster_fix</title>
<ellipse fill="none" stroke="#7f0000" cx="318" cy="-18" rx="75.26" ry="18"/>
<text text-anchor="middle" x="318" y="-13.8" font-family="Times,serif" font-size="14.00">dagre&#45;cluster&#45;fix</text>
</g>
<!-- dagre_abstract_renderer&#45;&gt;dagre_cluster_fix -->
<g id="edge10" class="edge">
<title>dagre_abstract_renderer&#45;&gt;dagre_cluster_fix</title>
<path fill="none" stroke="#7f0000" d="M213.21,-64C233.1,-55.46 255.01,-46.05 273.63,-38.05"/>
<polygon fill="#7f0000" stroke="#7f0000" points="275.3,-41.14 283.11,-33.98 272.54,-34.71 275.3,-41.14"/>
</g>
<!-- tslib -->
<g id="node12" class="node">
<title>tslib</title>
<ellipse fill="none" stroke="#7f00ff" cx="601" cy="-18" rx="27.84" ry="18"/>
<text text-anchor="middle" x="601" y="-13.8" font-family="Times,serif" font-size="14.00">tslib</text>
</g>
<!-- dagre_abstract_renderer&#45;&gt;tslib -->
<g id="edge11" class="edge">
<title>dagre_abstract_renderer&#45;&gt;tslib</title>
<path fill="none" stroke="#7f00ff" d="M264,-71.89C361.49,-56.59 498.76,-35.05 563.9,-24.82"/>
<polygon fill="#7f00ff" stroke="#7f00ff" points="564.74,-28.23 574.07,-23.23 563.65,-21.32 564.74,-28.23"/>
</g>
<!-- dagre_canvas -->
<g id="node2" class="node">
<title>dagre_canvas</title>
<ellipse fill="none" stroke="#007f00" cx="194" cy="-162" rx="61.94" ry="18"/>
<text text-anchor="middle" x="194" y="-157.8" font-family="Times,serif" font-size="14.00">dagre&#45;canvas</text>
</g>
<!-- dagre_canvas&#45;&gt;dagre_abstract_renderer -->
<g id="edge12" class="edge">
<title>dagre_canvas&#45;&gt;dagre_abstract_renderer</title>
<path fill="none" stroke="#7f7f00" d="M184.56,-144.05C180.08,-136.01 174.61,-126.2 169.61,-117.23"/>
<polygon fill="#7f7f00" stroke="#7f7f00" points="172.55,-115.31 164.62,-108.28 166.43,-118.71 172.55,-115.31"/>
</g>
<!-- dagre_svg -->
<g id="node3" class="node">
<title>dagre_svg</title>
<ellipse fill="none" stroke="#007f7f" cx="65" cy="-162" rx="49.22" ry="18"/>
<text text-anchor="middle" x="65" y="-157.8" font-family="Times,serif" font-size="14.00">dagre&#45;svg</text>
</g>
<!-- dagre_svg&#45;&gt;dagre_abstract_renderer -->
<g id="edge13" class="edge">
<title>dagre_svg&#45;&gt;dagre_abstract_renderer</title>
<path fill="none" stroke="#7f7f00" d="M84.97,-145.46C96.9,-136.19 112.25,-124.25 125.55,-113.91"/>
<polygon fill="#7f7f00" stroke="#7f7f00" points="127.77,-116.62 133.51,-107.71 123.47,-111.09 127.77,-116.62"/>
</g>
<!-- package_dependency_graph -->
<g id="node4" class="node">
<title>package_dependency_graph</title>
<ellipse fill="none" stroke="#00007f" cx="504" cy="-238.8" rx="117.41" ry="18"/>
<text text-anchor="middle" x="504" y="-234.6" font-family="Times,serif" font-size="14.00">package&#45;dependency&#45;graph</text>
</g>
<!-- package_dependency_graph&#45;&gt;dagre_canvas -->
<g id="edge2" class="edge">
<title>package_dependency_graph&#45;&gt;dagre_canvas</title>
<path fill="none" stroke="#000000" d="M396.01,-231.77C350.3,-228.28 301.42,-223.09 273.59,-215.46"/>
<polygon fill="#000000" stroke="#000000" points="274.59,-212.11 264,-212.42 272.47,-218.78 274.59,-212.11"/>
</g>
<!-- canvas -->
<g id="node5" class="node">
<title>canvas</title>
<ellipse fill="none" stroke="#0000ff" cx="942" cy="-162" rx="37.12" ry="18"/>
<text text-anchor="middle" x="942" y="-157.8" font-family="Times,serif" font-size="14.00">canvas</text>
</g>
<!-- package_dependency_graph&#45;&gt;canvas -->
<g id="edge1" class="edge">
<title>package_dependency_graph&#45;&gt;canvas</title>
<path fill="none" stroke="#0000ff" d="M618.39,-234.81C725.09,-231.33 871.43,-224.5 896,-212.8 907.67,-207.24 917.79,-197.29 925.55,-187.73"/>
<polygon fill="#0000ff" stroke="#0000ff" points="928.49,-189.64 931.74,-179.56 922.91,-185.42 928.49,-189.64"/>
</g>
<!-- graphviz_cli -->
<g id="node6" class="node">
<title>graphviz_cli</title>
<ellipse fill="none" stroke="#007fff" cx="332" cy="-162" rx="57.88" ry="18"/>
<text text-anchor="middle" x="332" y="-157.8" font-family="Times,serif" font-size="14.00">graphviz&#45;cli</text>
</g>
<!-- package_dependency_graph&#45;&gt;graphviz_cli -->
<g id="edge3" class="edge">
<title>package_dependency_graph&#45;&gt;graphviz_cli</title>
<path fill="none" stroke="#007fff" d="M431.52,-224.63C420.37,-221.45 409.19,-217.55 399,-212.8 384.17,-205.88 369.38,-195.37 357.49,-185.79"/>
<polygon fill="#007fff" stroke="#007fff" points="359.68,-183.06 349.75,-179.36 355.2,-188.45 359.68,-183.06"/>
</g>
<!-- minimist -->
<g id="node7" class="node">
<title>minimist</title>
<ellipse fill="none" stroke="#00ff00" cx="453" cy="-162" rx="45.26" ry="18"/>
<text text-anchor="middle" x="453" y="-157.8" font-family="Times,serif" font-size="14.00">minimist</text>
</g>
<!-- package_dependency_graph&#45;&gt;minimist -->
<g id="edge4" class="edge">
<title>package_dependency_graph&#45;&gt;minimist</title>
<path fill="none" stroke="#00ff00" d="M492.43,-220.83C485.86,-211.2 477.52,-198.96 470.2,-188.22"/>
<polygon fill="#00ff00" stroke="#00ff00" points="472.88,-185.94 464.35,-179.65 467.09,-189.88 472.88,-185.94"/>
</g>
<!-- package_dependency_graph_core -->
<g id="node8" class="node">
<title>package_dependency_graph_core</title>
<ellipse fill="none" stroke="#00ff7f" cx="750" cy="-162" rx="137.07" ry="18"/>
<text text-anchor="middle" x="750" y="-157.8" font-family="Times,serif" font-size="14.00">package&#45;dependency&#45;graph&#45;core</text>
</g>
<!-- package_dependency_graph&#45;&gt;package_dependency_graph_core -->
<g id="edge5" class="edge">
<title>package_dependency_graph&#45;&gt;package_dependency_graph_core</title>
<path fill="none" stroke="#00ff7f" d="M565.03,-223.41C577.95,-220.12 591.47,-216.5 604,-212.8 634.77,-203.72 668.71,-192.24 696.12,-182.58"/>
<polygon fill="#00ff7f" stroke="#00ff7f" points="697.65,-185.76 705.9,-179.12 695.31,-179.16 697.65,-185.76"/>
</g>
<!-- ts_node -->
<g id="node9" class="node">
<title>ts_node</title>
<ellipse fill="none" stroke="#00ffff" cx="556" cy="-162" rx="39.43" ry="18"/>
<text text-anchor="middle" x="556" y="-157.8" font-family="Times,serif" font-size="14.00">ts&#45;node</text>
</g>
<!-- package_dependency_graph&#45;&gt;ts_node -->
<g id="edge6" class="edge">
<title>package_dependency_graph&#45;&gt;ts_node</title>
<path fill="none" stroke="#00ffff" d="M515.8,-220.83C522.61,-211.03 531.29,-198.54 538.85,-187.67"/>
<polygon fill="#00ffff" stroke="#00ffff" points="541.77,-189.6 544.6,-179.39 536.02,-185.61 541.77,-189.6"/>
</g>
<!-- package_dependency_graph_core&#45;&gt;dagre_cluster_fix -->
<g id="edge7" class="edge">
<title>package_dependency_graph_core&#45;&gt;dagre_cluster_fix</title>
<path fill="none" stroke="#7f0000" d="M701.7,-145.12C619.85,-118.22 454.55,-63.89 370.16,-36.14"/>
<polygon fill="#7f0000" stroke="#7f0000" points="371.11,-32.77 360.52,-32.98 368.93,-39.42 371.11,-32.77"/>
</g>
<!-- package_dependency_collect -->
<g id="node11" class="node">
<title>package_dependency_collect</title>
<ellipse fill="none" stroke="#7f007f" cx="750" cy="-90" rx="120.91" ry="18"/>
<text text-anchor="middle" x="750" y="-85.8" font-family="Times,serif" font-size="14.00">package&#45;dependency&#45;collect</text>
</g>
<!-- package_dependency_graph_core&#45;&gt;package_dependency_collect -->
<g id="edge8" class="edge">
<title>package_dependency_graph_core&#45;&gt;package_dependency_collect</title>
<path fill="none" stroke="#7f007f" d="M750,-143.7C750,-135.98 750,-126.71 750,-118.11"/>
<polygon fill="#7f007f" stroke="#7f007f" points="753.5,-118.1 750,-108.1 746.5,-118.1 753.5,-118.1"/>
</g>
<!-- package_dependency_graph_core&#45;&gt;tslib -->
<g id="edge9" class="edge">
<title>package_dependency_graph_core&#45;&gt;tslib</title>
<path fill="none" stroke="#7f00ff" d="M680.43,-146.4C658.21,-138.5 635.41,-126.41 620,-108 605.69,-90.91 601.38,-65.62 600.4,-46.36"/>
<polygon fill="#7f00ff" stroke="#7f00ff" points="603.89,-46.02 600.15,-36.1 596.89,-46.19 603.89,-46.02"/>
</g>
<!-- package_dependency_collect&#45;&gt;tslib -->
<g id="edge15" class="edge">
<title>package_dependency_collect&#45;&gt;tslib</title>
<path fill="none" stroke="#7f00ff" d="M715.07,-72.59C689.86,-60.74 656.13,-44.9 631.9,-33.52"/>
<polygon fill="#7f00ff" stroke="#7f00ff" points="633.33,-30.32 622.79,-29.24 630.36,-36.66 633.33,-30.32"/>
</g>
<!-- glob -->
<g id="node13" class="node">
<title>glob</title>
<ellipse fill="none" stroke="#7f7f7f" cx="750" cy="-18" rx="28.41" ry="18"/>
<text text-anchor="middle" x="750" y="-13.8" font-family="Times,serif" font-size="14.00">glob</text>
</g>
<!-- package_dependency_collect&#45;&gt;glob -->
<g id="edge14" class="edge">
<title>package_dependency_collect&#45;&gt;glob</title>
<path fill="none" stroke="#7f7f7f" d="M750,-71.7C750,-63.98 750,-54.71 750,-46.11"/>
<polygon fill="#7f7f7f" stroke="#7f7f7f" points="753.5,-46.1 750,-36.1 746.5,-46.1 753.5,-46.1"/>
</g>
</g>
</svg>
